<svg version="1.1" id="Layer_1" xmlns="http://www.w3.org/2000/svg" xmlns:xlink="http://www.w3.org/1999/xlink" x="0px" y="0px"
	 width="100%" viewBox="0 0 500 500" enable-background="new 0 0 500 500" xml:space="preserve">
<path fill="#010101" opacity="1.000000" stroke="none" 
	d="
M278.000000,501.000000 
	C185.333359,501.000000 93.166710,501.000000 1.000049,501.000000 
	C1.000033,334.333405 1.000033,167.666794 1.000016,1.000139 
	C167.666565,1.000093 334.333130,1.000093 500.999756,1.000046 
	C500.999847,167.666519 500.999847,334.333038 500.999939,500.999786 
	C426.833344,501.000000 352.666656,501.000000 278.000000,501.000000 
M143.843582,244.857574 
	C148.636032,243.995987 153.428467,243.134399 158.765045,242.933502 
	C159.210175,252.655075 159.978592,262.375824 160.002991,272.098480 
	C160.024338,280.603210 162.693405,285.087067 170.789001,287.020569 
	C179.692642,286.378174 184.026505,279.931885 182.445831,270.397827 
	C180.554138,258.987701 179.774460,247.530594 183.886765,236.076874 
	C191.484543,234.799789 199.080566,233.512070 206.680740,232.249420 
	C211.697571,231.415939 216.720398,230.618546 222.198059,230.497284 
	C225.568863,247.901596 224.371872,265.403900 223.308105,282.901306 
	C222.847397,290.479492 221.627472,298.094208 222.049576,305.619537 
	C222.450119,312.760315 223.627441,320.312805 232.149811,324.234741 
	C239.858368,329.453888 249.417389,321.964905 250.084366,313.694183 
	C250.519760,308.295471 250.589279,302.644287 249.488235,297.385559 
	C245.845703,279.988251 245.020615,262.516479 248.517258,245.169800 
	C250.140579,237.116562 254.145966,229.543472 257.773895,221.604996 
	C263.217224,220.349945 268.638153,218.985382 274.109161,217.865448 
	C282.417938,216.164597 290.761505,214.633530 299.854584,213.144104 
	C301.287842,214.118500 303.472809,214.777664 304.034637,216.117477 
	C308.267273,226.211502 309.334991,236.914108 308.760529,247.710510 
	C308.420441,254.102844 306.952332,260.426941 306.291565,266.812775 
	C305.662964,272.887512 305.024384,279.008453 305.112885,285.098572 
	C305.231567,293.264343 309.585022,302.591980 318.719666,304.313538 
	C325.373535,305.814301 329.549164,304.028961 332.754242,298.079071 
	C337.094727,290.021332 336.898987,281.446106 335.060547,272.849945 
	C331.461060,256.019348 329.344147,239.076752 332.349091,221.981079 
	C333.438904,215.780899 336.068604,209.851395 338.793518,204.011932 
	C345.617645,202.639130 352.451721,201.313614 359.264099,199.884827 
	C381.490692,195.223282 403.736176,190.646515 425.920502,185.790863 
	C438.150604,183.113998 446.297577,175.522385 449.746399,163.477295 
	C452.826477,152.720016 451.124725,142.558594 443.511383,134.090134 
	C438.746552,128.790146 433.457672,123.919586 428.100891,119.200325 
	C394.205109,89.338638 355.857758,66.933525 313.487396,51.405144 
	C287.088379,41.730129 259.879120,35.099968 232.219193,30.175425 
	C210.474854,26.304089 198.326843,40.993851 197.233337,57.644390 
	C197.305756,62.123577 197.378189,66.602760 197.148834,71.710106 
	C194.826431,74.302505 192.504044,76.894905 189.525833,79.849197 
	C187.277679,81.791771 185.029510,83.734337 181.999908,85.729416 
	C176.167465,87.920273 170.011292,89.517151 164.594040,92.469757 
	C159.223801,95.396736 154.792892,99.819908 154.353409,107.463005 
	C154.314301,109.279167 154.275177,111.095329 154.054428,113.593971 
	C143.369217,125.393349 132.683990,137.192719 121.193184,148.901611 
	C119.692574,149.300903 117.622871,149.203812 116.776695,150.173935 
	C104.058899,164.754501 91.502182,179.475586 78.314499,194.571762 
	C77.936592,197.027542 77.558685,199.483337 76.892235,202.568237 
	C71.226997,209.935425 65.561760,217.302612 59.339428,224.891083 
	C59.168938,225.235229 58.998444,225.579376 58.903538,225.927841 
	C58.903538,225.927841 58.850792,225.873566 58.310749,226.314011 
	C55.921352,232.310471 51.880199,238.196411 51.470181,244.325287 
	C50.471325,259.255951 51.028072,274.301178 51.260815,289.295593 
	C51.313305,292.677582 53.483124,295.006897 57.341061,295.223419 
	C61.579994,295.461334 63.630138,293.093231 63.949226,289.381012 
	C64.201065,286.451111 63.285233,283.435181 63.391258,280.475494 
	C63.631199,273.777740 64.182076,267.091095 65.309143,260.162506 
	C67.230530,259.729004 69.146744,259.270813 71.074234,258.866364 
	C78.710052,257.264099 86.349419,255.678711 94.335571,254.797562 
	C95.282822,256.019928 96.999290,257.213165 97.046829,258.469604 
	C97.277237,264.558746 97.393456,270.690857 96.920685,276.758698 
	C96.254456,285.309509 94.652885,293.795898 94.177254,302.350220 
	C93.825562,308.675140 96.213638,314.034180 103.631485,316.671722 
	C110.033897,318.032135 115.241966,315.478546 117.338318,309.820526 
	C119.155548,304.915833 119.162682,299.193390 119.239594,293.821899 
	C119.395485,282.934937 118.731461,272.030304 119.084068,261.154968 
	C119.223412,256.857483 121.172325,252.618637 123.129860,248.354340 
	C129.761429,247.172546 136.393005,245.990768 143.843582,244.857574 
M193.022675,356.603882 
	C193.022675,364.692444 193.022675,372.781036 193.022675,380.935516 
	C196.176163,380.935516 198.630478,380.935516 202.019745,380.935516 
	C202.019745,374.634949 201.902267,368.526825 202.064758,362.426178 
	C202.159012,358.887695 203.732895,356.084930 207.803268,356.512268 
	C211.753922,356.927063 211.955322,360.202545 211.974960,363.284485 
	C212.011765,369.062592 211.985550,374.841064 211.985550,380.831238 
	C215.015823,380.831238 217.548904,380.831238 220.066071,380.831238 
	C220.352188,374.401794 220.445251,368.264648 220.966858,362.164154 
	C221.261749,358.715027 223.045715,356.030060 227.113663,356.551788 
	C230.981613,357.047882 230.856064,360.162323 230.863159,363.036621 
	C230.877838,368.978241 230.867599,374.919952 230.867599,380.971222 
	C233.944138,380.971222 236.393372,380.971222 239.228928,380.971222 
	C239.228928,373.510742 239.321899,366.223145 239.202103,358.939026 
	C239.088089,352.005981 233.489441,347.688660 226.786514,349.548645 
	C224.196625,350.267273 221.880356,351.971985 219.274979,353.312012 
	C213.383118,347.877106 207.936722,347.686462 202.311432,352.179504 
	C199.000793,351.099609 196.393616,350.249146 193.025253,349.150421 
	C193.025253,352.055786 193.025253,353.846466 193.022675,356.603882 
M344.008881,338.206665 
	C341.751801,338.206665 339.494720,338.206665 336.964417,338.206665 
	C336.964417,341.090485 336.964417,343.399994 336.964417,345.709503 
	C336.964417,348.005798 336.964417,350.302063 336.964417,352.637970 
	C329.989258,347.649658 322.855225,348.209106 319.482208,354.411987 
	C315.588379,361.572693 315.395020,369.062927 319.441376,376.314484 
	C321.971741,380.849182 327.623444,382.776611 332.386292,380.803589 
	C334.149506,380.073181 335.652679,378.714935 336.221558,378.338928 
	C339.438507,379.673157 341.948639,380.714264 344.856384,381.920258 
	C344.856384,366.605957 344.856384,352.529266 344.008881,338.206665 
M161.043381,435.622284 
	C163.338882,442.678131 165.494583,449.785645 168.066238,456.739349 
	C168.499359,457.910492 170.750793,459.118134 172.123260,459.074921 
	C174.470932,459.001038 178.375458,458.544922 178.870789,457.219513 
	C183.534927,444.739716 187.614868,432.041534 191.945923,419.161011 
	C188.796234,419.161011 186.009155,419.161011 183.229202,419.161011 
	C180.027588,429.105865 176.877594,438.890411 173.632141,448.971466 
	C171.162903,441.127869 168.748291,433.765778 166.535004,426.343658 
	C164.146759,418.334808 164.228912,418.310303 155.529999,419.400299 
	C157.300018,424.586609 159.054474,429.727325 161.043381,435.622284 
M282.118835,352.810608 
	C282.118835,362.100708 282.118835,371.390808 282.118835,380.857361 
	C285.088074,380.857361 287.645416,380.857361 290.809814,380.857361 
	C290.809814,375.462250 290.784851,370.342987 290.816071,365.224030 
	C290.856110,358.657074 292.542084,356.107300 296.995361,356.546570 
	C302.661926,357.105499 301.546417,361.751160 301.667084,365.367279 
	C301.838318,370.497681 301.710541,375.638062 301.710541,380.940552 
	C304.722046,380.940552 307.335907,380.940552 310.208679,380.940552 
	C310.208679,373.422150 310.429749,366.103424 310.126862,358.806488 
	C309.941315,354.335144 307.640900,351.176544 302.931458,349.792572 
	C297.674225,348.247650 293.621887,350.233948 289.764557,353.369812 
	C287.647430,349.187561 284.808868,348.685333 282.118835,352.810608 
M250.113449,351.389954 
	C250.392242,353.507172 250.671036,355.624390 250.959427,357.814514 
	C262.962952,354.770569 264.582214,355.252960 264.219147,361.061432 
	C260.009583,361.794617 255.706299,362.095123 251.707764,363.359375 
	C247.169800,364.794189 245.151413,369.064423 245.969437,373.641510 
	C246.752563,378.023224 250.474518,381.584747 255.025925,381.198151 
	C258.748230,380.881989 262.368500,379.364899 265.297638,378.578033 
	C267.777802,379.638336 270.193817,380.671204 273.083862,381.906738 
	C273.083862,372.603638 273.546234,364.619812 272.798157,356.751007 
	C272.577820,354.433441 269.292053,351.748108 266.781281,350.444824 
	C261.563995,347.736725 256.103882,349.449646 250.113449,351.389954 
M314.722351,427.996338 
	C309.789551,427.227722 305.251648,428.254028 300.980927,430.405914 
	C301.766510,435.471619 303.857758,436.582642 308.289337,434.927460 
	C313.921387,432.823914 315.684021,434.058716 316.390594,439.441132 
	C309.638245,440.963837 300.548920,438.074463 298.030609,448.025116 
	C297.019562,452.020111 298.142273,456.092407 302.094849,458.476471 
	C305.781830,460.700317 313.192566,459.085480 317.784912,455.187134 
	C318.395386,460.106384 321.582275,459.633606 324.933075,458.913696 
	C325.081482,458.403107 325.248169,458.095490 325.249054,457.787415 
	C325.266266,451.802429 325.291168,445.817291 325.259125,439.832458 
	C325.218323,432.212128 323.126678,429.702759 314.722351,427.996338 
M131.143463,356.170929 
	C133.551910,347.140320 135.900803,346.273529 149.702438,349.622437 
	C150.511948,347.455505 151.342621,345.231934 152.164337,343.032349 
	C141.472443,338.384674 132.764587,339.246521 126.909119,345.291016 
	C121.159012,351.226776 119.622948,364.086426 123.664764,372.452087 
	C126.941299,379.233765 133.718628,382.122894 144.134140,381.178040 
	C150.230438,380.625000 151.228058,379.339142 150.408997,372.638733 
	C148.811249,372.874084 147.196014,373.008118 145.629547,373.359619 
	C135.678345,375.592285 130.963516,372.058350 130.638611,361.990692 
	C130.585388,360.341705 130.842224,358.682648 131.143463,356.170929 
M271.353546,441.467255 
	C271.353546,437.259644 271.353546,433.052002 271.353546,428.910980 
	C268.145630,428.910980 265.685547,428.910980 262.814728,428.910980 
	C262.814728,435.056274 262.793579,441.000793 262.819489,446.945099 
	C262.862732,456.865234 267.090973,460.679321 276.840454,459.155060 
	C279.140442,458.795471 281.243164,457.173981 283.436646,456.133026 
	C283.283722,456.469055 283.130829,456.805084 282.977905,457.141113 
	C285.532318,457.977112 288.086731,458.813110 291.108826,459.802155 
	C291.108826,448.680389 291.108826,438.924164 291.108826,428.971863 
	C288.185760,428.971863 285.455994,428.971863 282.161804,428.971863 
	C282.161804,435.293915 282.611420,441.417694 281.907104,447.405701 
	C281.674500,449.383423 278.733124,451.940613 276.550171,452.571442 
	C273.587616,453.427582 271.779541,451.131836 271.715698,447.875122 
	C271.680115,446.061493 271.450653,444.251678 271.353546,441.467255 
M157.981644,373.294281 
	C162.828491,381.417999 171.326965,383.867767 179.272232,379.431519 
	C185.187378,376.128723 187.399887,369.847565 185.907455,360.594543 
	C184.959000,354.714020 179.139084,349.768372 172.504440,349.204926 
	C166.040588,348.656036 158.589203,352.703247 157.598373,358.368469 
	C156.797424,362.948029 157.644852,367.815887 157.981644,373.294281 
M370.539520,378.046021 
	C371.191833,377.946442 372.410309,377.733673 372.416229,377.763306 
	C373.201050,381.689362 375.847321,381.526672 379.181610,380.748199 
	C379.181610,373.134033 379.567993,365.494446 378.961670,357.934448 
	C378.762787,355.454529 376.517822,352.180359 374.291626,351.002686 
	C367.839294,347.589355 361.288361,349.095062 354.760834,352.248291 
	C355.377747,353.526215 355.732635,354.447571 356.244232,355.271698 
	C356.822113,356.202606 357.540863,357.046082 358.133240,357.840332 
	C368.085938,354.404022 371.181519,355.410034 370.180786,361.486633 
	C366.875793,361.741119 363.515717,361.673370 360.304230,362.331177 
	C356.434814,363.123718 352.602203,365.030060 352.489899,369.457977 
	C352.409698,372.620483 353.260315,376.434723 355.118469,378.874512 
	C358.082550,382.766541 364.531158,382.212646 370.539520,378.046021 
M248.281189,423.357056 
	C245.810410,421.582672 243.646576,420.952393 241.687790,424.240509 
	C240.404861,426.394073 238.309326,428.074371 237.097687,430.255432 
	C236.409454,431.494293 236.768814,433.315094 236.656403,434.873810 
	C239.871674,434.853912 239.137909,437.231171 239.164841,439.082062 
	C239.213226,442.405090 238.898697,445.761902 239.268631,449.044525 
	C239.727005,453.111938 240.108185,457.885620 245.088120,458.913422 
	C248.807999,459.681122 252.813522,459.064819 256.694916,459.064819 
	C256.694916,456.189606 256.694916,454.253052 256.694916,451.939301 
	C255.126526,452.229828 253.620071,453.007477 252.652725,452.576111 
	C251.030502,451.852753 248.671112,450.480103 248.524277,449.167816 
	C248.016144,444.626465 248.328400,439.993317 248.328400,435.172699 
	C251.440765,435.033844 254.021805,434.918671 256.744202,434.797180 
	C256.744202,432.572784 256.744202,430.800354 256.744202,428.909821 
	C253.969498,428.745117 251.373215,428.591003 248.561966,428.424133 
	C248.472443,426.830841 248.399796,425.537781 248.281189,423.357056 
M221.870560,456.048767 
	C221.871445,453.388031 221.869400,450.727295 221.873734,448.066559 
	C221.890717,437.634583 222.426865,436.999420 232.824066,435.423340 
	C232.824066,433.093689 232.824066,430.708435 232.824066,426.950531 
	C228.406754,428.647614 224.627167,430.099670 220.751984,431.588470 
	C220.247665,426.361481 216.392685,428.953705 213.424042,429.118378 
	C213.424042,439.249939 213.424042,449.002319 213.424042,459.282593 
	C216.420395,458.079987 220.093887,461.804199 221.870560,456.048767 
M342.141357,447.491028 
	C342.141357,437.125580 342.141357,426.760132 342.141357,416.585876 
	C338.880554,416.585876 336.467468,416.585876 334.114685,416.585876 
	C334.114685,430.935455 334.114685,444.954285 334.114685,459.028870 
	C336.896362,459.028870 339.315613,459.028870 342.141357,459.028870 
	C342.141357,455.391846 342.141357,451.940430 342.141357,447.491028 
M204.885605,433.774414 
	C204.804764,432.185883 204.723938,430.597351 204.640137,428.950439 
	C201.639008,428.950439 199.039719,428.950439 196.435577,428.950439 
	C196.435577,439.118256 196.435577,449.008484 196.435577,458.945984 
	C199.327667,458.945984 201.919861,458.945984 204.886536,458.945984 
	C204.886536,450.663849 204.886536,442.692078 204.885605,433.774414 
M203.546829,424.090546 
	C203.689026,421.835999 203.831223,419.581421 203.973419,417.326874 
	C201.792587,417.239471 199.444580,416.644867 197.503448,417.284668 
	C196.572220,417.591583 195.748199,420.364838 196.031845,421.791199 
	C196.719803,425.250519 199.631332,425.081116 202.390335,424.682678 
	C202.550827,424.659485 202.701874,424.570953 203.546829,424.090546 
z"/>
<path fill="#F4A04E" opacity="1.000000" stroke="none" 
	d="
M197.709335,56.972488 
	C198.326843,40.993851 210.474854,26.304089 232.219193,30.175425 
	C259.879120,35.099968 287.088379,41.730129 313.487396,51.405144 
	C355.857758,66.933525 394.205109,89.338638 428.100891,119.200325 
	C433.457672,123.919586 438.746552,128.790146 443.511383,134.090134 
	C451.124725,142.558594 452.826477,152.720016 449.746399,163.477295 
	C446.297577,175.522385 438.150604,183.113998 425.920502,185.790863 
	C403.736176,190.646515 381.490692,195.223282 359.264099,199.884827 
	C352.451721,201.313614 345.617645,202.639130 338.434540,203.554321 
	C341.921356,192.817001 350.159454,186.671005 359.303864,180.959351 
	C368.353973,178.844437 377.076263,177.057053 385.574921,174.520264 
	C389.113586,173.463989 392.571808,171.100540 391.985901,165.858063 
	C393.862091,160.153961 395.700165,154.842178 397.138458,149.424240 
	C397.471558,148.169586 396.909332,146.011719 395.961121,145.187332 
	C388.085571,138.340195 380.231781,131.437332 371.972076,125.069283 
	C355.844879,112.635597 339.306274,100.850143 320.755768,92.061157 
	C308.300629,86.160080 295.910797,80.381454 282.244965,77.827156 
	C275.935272,76.647804 269.511902,75.643517 263.464935,73.599052 
	C255.533081,70.917305 247.990524,67.105858 240.146515,64.134048 
	C235.702866,62.450508 231.047806,61.197899 226.387283,60.242176 
	C218.481155,58.620888 210.509445,57.296124 202.530716,56.072250 
	C201.005508,55.838303 199.320572,56.645592 197.709335,56.972488 
z"/>
<path fill="#FAECC7" opacity="1.000000" stroke="none" 
	d="
M317.987396,304.026245 
	C309.585022,302.591980 305.231567,293.264343 305.112885,285.098572 
	C305.024384,279.008453 305.662964,272.887512 306.291565,266.812775 
	C306.952332,260.426941 308.420441,254.102844 308.760529,247.710510 
	C309.334991,236.914108 308.267273,226.211502 304.034637,216.117477 
	C303.472809,214.777664 301.287842,214.118500 299.648682,212.795975 
	C299.635132,211.132858 300.462494,209.205414 299.898071,208.620255 
	C298.341858,207.006653 296.319672,205.714935 294.274628,204.722900 
	C286.350952,200.879211 278.821716,204.188538 270.824341,206.182953 
	C268.953796,206.398621 267.511566,206.828033 266.045654,206.936188 
	C253.552795,207.857773 246.318604,216.287430 241.400665,226.158127 
	C236.301636,236.392288 235.375412,248.067688 235.161804,259.444794 
	C235.014114,267.311401 236.252136,275.204041 236.466309,283.062988 
	C232.479507,282.743500 230.531525,283.671631 228.617233,287.543732 
	C225.024353,294.811127 226.031067,301.636963 228.257721,308.535797 
	C228.948990,310.677551 231.471542,313.041107 233.601151,313.597229 
	C234.854736,313.924622 237.085571,310.997101 238.680145,309.343811 
	C239.596893,308.393280 240.120834,307.063904 240.869888,306.318207 
	C239.743393,309.863678 238.869919,313.157135 237.305908,316.081268 
	C235.849304,318.804626 233.657745,321.134918 231.789703,323.638245 
	C223.627441,320.312805 222.450119,312.760315 222.049576,305.619537 
	C221.627472,298.094208 222.847397,290.479492 223.308105,282.901306 
	C224.371872,265.403900 225.568863,247.901596 222.050095,229.827698 
	C222.877899,221.875076 218.814072,215.023071 212.122040,212.654602 
	C210.968414,211.849594 209.981476,211.338959 208.908295,210.680450 
	C208.551071,210.610855 208.280121,210.689163 207.597778,210.822449 
	C205.804977,210.848602 204.423584,210.819778 202.990936,210.441971 
	C200.987549,208.742432 199.191208,206.621414 197.053375,206.189133 
	C191.185699,205.002701 186.067230,207.120972 181.492020,210.961151 
	C173.822601,217.398544 172.340256,226.566269 171.215103,235.490753 
	C170.342621,242.410980 170.536621,249.687042 171.645676,256.581482 
	C173.140167,265.871735 177.289627,274.985870 170.298843,283.803040 
	C169.788254,284.447021 170.089661,285.734711 170.013550,286.723145 
	C162.693405,285.087067 160.024338,280.603210 160.002991,272.098480 
	C159.978592,262.375824 159.210175,252.655075 158.435364,242.369141 
	C157.918198,241.535995 157.795441,241.240356 157.804794,240.916382 
	C157.872192,240.914932 157.934280,240.795273 158.221619,240.805603 
	C158.378357,239.780472 158.247726,238.745026 158.115555,237.352402 
	C155.662292,234.349106 153.662903,230.492401 150.643951,229.364395 
	C146.900879,227.965820 142.313278,228.827560 138.014023,228.377625 
	C132.282013,221.724991 123.434486,222.469315 118.121635,227.316879 
	C112.832932,232.142395 110.923645,238.229721 109.667549,245.101105 
	C106.918304,260.140839 106.836327,275.048615 110.529579,289.837219 
	C112.721748,298.615143 111.416756,305.973877 104.524467,312.167236 
	C103.592003,313.005157 103.512085,314.791809 103.037392,316.139160 
	C96.213638,314.034180 93.825562,308.675140 94.177254,302.350220 
	C94.652885,293.795898 96.254456,285.309509 96.920685,276.758698 
	C97.393456,270.690857 97.277237,264.558746 97.046829,258.469604 
	C96.999290,257.213165 95.282822,256.019928 94.531052,254.389282 
	C95.256859,252.224319 96.660530,250.164536 96.173424,248.760956 
	C93.364471,240.666931 89.327232,238.888672 79.108719,240.602875 
	C71.248962,241.921387 63.531990,252.455872 64.606499,260.399933 
	C64.182076,267.091095 63.631199,273.777740 63.391258,280.475494 
	C63.285233,283.435181 64.201065,286.451111 63.949226,289.381012 
	C63.630138,293.093231 61.579994,295.461334 57.341061,295.223419 
	C53.483124,295.006897 51.313305,292.677582 51.260815,289.295593 
	C51.028072,274.301178 50.471325,259.255951 51.470181,244.325287 
	C51.880199,238.196411 55.921352,232.310471 58.618607,226.514221 
	C58.572628,231.177078 60.705425,231.622696 64.231796,230.092407 
	C66.107025,229.278671 68.081886,228.694504 69.966980,228.373108 
	C69.267471,230.619370 68.612747,232.499222 67.958023,234.379089 
	C68.413605,234.733795 68.869186,235.088516 69.324760,235.443222 
	C76.702965,229.130539 85.532692,227.901337 94.514023,228.103439 
	C103.843849,228.313446 112.548264,226.547562 120.981682,222.612762 
	C125.630600,220.443695 130.457184,218.412704 135.419250,217.205627 
	C147.586166,214.245880 159.892838,211.865723 172.114883,209.125732 
	C180.863983,207.164322 182.056183,205.212540 180.452972,197.020355 
	C187.381836,198.816025 193.180847,196.269455 199.351791,193.920517 
	C200.121628,194.009140 200.555771,194.109390 200.992950,194.436005 
	C200.996002,194.662354 201.031555,195.113693 200.979965,195.460175 
	C199.980820,197.610764 199.033264,199.414856 197.971008,201.437363 
	C199.145859,201.711411 199.654099,201.994324 200.087540,201.906815 
	C208.923874,200.122437 217.646805,200.372925 226.617355,201.693222 
	C234.185669,202.807144 242.275711,203.186966 248.888931,197.561646 
	C258.595154,189.305344 270.102112,188.051361 282.160339,189.027740 
	C289.575195,189.628128 297.057159,191.300247 304.366913,190.715469 
	C310.530212,190.222397 316.790680,187.802094 322.464172,185.094849 
	C330.199890,181.403564 337.200592,176.126907 345.964233,175.387375 
	C342.192200,178.053986 338.196838,180.008957 334.862335,182.763840 
	C327.474548,188.867447 323.816406,197.673935 322.266113,206.490616 
	C320.300018,217.672165 320.527283,229.255066 320.033691,240.674622 
	C319.673492,249.007996 321.901917,256.889374 324.245331,264.855835 
	C327.755829,276.789886 327.339539,288.439240 318.909454,298.754456 
	C317.925354,299.958649 318.262695,302.242767 317.987396,304.026245 
M313.368866,273.359161 
	C313.487549,278.116913 313.606201,282.874695 313.740692,288.266663 
	C320.218536,284.877136 320.850708,274.179932 315.611969,268.811035 
	C314.902893,270.205170 314.294952,271.400421 313.368866,273.359161 
z"/>
<path fill="#F5822D" opacity="1.000000" stroke="none" 
	d="
M197.471344,57.308441 
	C199.320572,56.645592 201.005508,55.838303 202.530716,56.072250 
	C210.509445,57.296124 218.481155,58.620888 226.387283,60.242176 
	C231.047806,61.197899 235.702866,62.450508 240.146515,64.134048 
	C247.990524,67.105858 255.533081,70.917305 263.464935,73.599052 
	C269.511902,75.643517 275.935272,76.647804 282.244965,77.827156 
	C295.910797,80.381454 308.300629,86.160080 320.755768,92.061157 
	C339.306274,100.850143 355.844879,112.635597 371.972076,125.069283 
	C380.231781,131.437332 388.085571,138.340195 395.961121,145.187332 
	C396.909332,146.011719 397.471558,148.169586 397.138458,149.424240 
	C395.700165,154.842178 393.862091,160.153961 391.662903,165.773804 
	C384.452240,159.865875 377.880219,153.537552 371.020508,147.538193 
	C346.006287,125.661263 319.238129,106.405098 287.351196,95.819176 
	C267.410492,89.199203 247.097153,83.674927 226.855270,78.000565 
	C217.168457,75.285080 207.259140,73.363243 197.450607,71.081947 
	C197.378189,66.602760 197.305756,62.123577 197.471344,57.308441 
z"/>
<path fill="#F0301F" opacity="1.000000" stroke="none" 
	d="
M197.299713,71.396027 
	C207.259140,73.363243 217.168457,75.285080 226.855270,78.000565 
	C247.097153,83.674927 267.410492,89.199203 287.351196,95.819176 
	C319.238129,106.405098 346.006287,125.661263 371.020508,147.538193 
	C377.880219,153.537552 384.452240,159.865875 391.479309,166.127502 
	C392.571808,171.100540 389.113586,173.463989 385.574921,174.520264 
	C377.076263,177.057053 368.353973,178.844437 359.345825,180.620544 
	C359.666229,178.886200 360.362701,177.465500 361.039307,176.037170 
	C361.019470,176.029556 361.032745,176.064865 361.237183,175.969940 
	C361.693634,175.651627 361.775726,175.377396 361.831299,174.835052 
	C361.997894,174.445786 362.021118,174.273788 362.319153,173.886475 
	C362.983429,172.127853 363.372925,170.584534 363.884460,168.596542 
	C365.316864,157.048843 360.402985,149.277161 350.955048,144.029892 
	C347.046295,141.858994 343.009216,139.919083 338.808899,137.623383 
	C337.735168,136.901535 336.676147,136.615555 336.063202,135.930496 
	C330.352142,129.547791 322.917023,126.004578 314.892273,122.745918 
	C313.017914,121.686584 311.449768,120.459076 309.729431,120.184235 
	C302.194000,118.980370 294.641846,117.685364 287.043915,117.118553 
	C277.821320,116.430534 270.108826,113.034241 264.875061,105.457947 
	C253.967178,89.667946 237.910889,84.016190 219.979828,81.999153 
	C210.078217,80.885353 200.116348,80.307022 190.181656,79.487305 
	C192.504044,76.894905 194.826431,74.302505 197.299713,71.396027 
z"/>
<path fill="#E6443B" opacity="1.000000" stroke="none" 
	d="
M154.801361,106.827057 
	C154.792892,99.819908 159.223801,95.396736 164.594040,92.469757 
	C170.011292,89.517151 176.167465,87.920273 182.869202,85.772263 
	C192.869873,85.718056 201.941330,85.356819 210.778290,88.822296 
	C221.514542,93.032578 227.124329,99.577721 226.712769,109.246216 
	C226.122787,114.797661 223.074142,118.348160 218.861069,121.047768 
	C203.854324,130.663605 187.901764,131.457092 171.430435,125.692818 
	C162.476685,122.559380 155.773026,117.142128 154.801361,106.827057 
M167.616699,102.977425 
	C165.376236,104.875336 165.613144,107.252304 167.974274,108.111450 
	C170.668015,109.091644 173.842590,109.086693 176.770370,108.903900 
	C177.785782,108.840508 179.387756,107.001534 179.444153,105.907684 
	C179.499924,104.826027 178.069153,102.842323 177.069046,102.687851 
	C174.177414,102.241203 171.174362,102.515984 167.616699,102.977425 
M197.398026,123.023674 
	C198.451782,121.470734 199.505524,119.917793 200.559280,118.364861 
	C197.763794,117.402679 194.979523,115.777992 192.168533,115.730370 
	C190.520096,115.702438 188.829117,118.186058 187.157288,119.539932 
	C189.359543,120.927315 191.494171,122.447876 193.804947,123.621628 
	C194.506027,123.977730 195.693909,123.375481 197.398026,123.023674 
M213.835022,103.625603 
	C210.491257,103.488174 207.122803,103.086250 203.820679,103.394676 
	C202.968704,103.474251 201.413681,106.111832 201.737854,107.017014 
	C203.481918,111.886948 207.872025,110.034843 211.205154,109.837021 
	C214.262390,109.655571 215.981659,107.566147 213.835022,103.625603 
M183.239594,94.711403 
	C184.662186,96.149857 186.019882,98.701408 187.521225,98.788918 
	C190.411819,98.957405 193.383682,97.731796 196.321838,97.084320 
	C195.657913,95.496300 194.958298,92.531342 194.335953,92.547470 
	C190.747345,92.640518 187.177032,93.438347 183.239594,94.711403 
z"/>
<path fill="#F8DB9E" opacity="1.000000" stroke="none" 
	d="
M361.059143,176.044800 
	C360.362701,177.465500 359.666229,178.886200 358.927795,180.645691 
	C350.159454,186.671005 341.921356,192.817001 338.035645,203.447556 
	C336.068604,209.851395 333.438904,215.780899 332.349091,221.981079 
	C329.344147,239.076752 331.461060,256.019348 335.060547,272.849945 
	C336.898987,281.446106 337.094727,290.021332 332.754242,298.079071 
	C329.549164,304.028961 325.373535,305.814301 318.353516,304.169891 
	C318.262695,302.242767 317.925354,299.958649 318.909454,298.754456 
	C327.339539,288.439240 327.755829,276.789886 324.245331,264.855835 
	C321.901917,256.889374 319.673492,249.007996 320.033691,240.674622 
	C320.527283,229.255066 320.300018,217.672165 322.266113,206.490616 
	C323.816406,197.673935 327.474548,188.867447 334.862335,182.763840 
	C338.196838,180.008957 342.192200,178.053986 346.334900,175.374573 
	C348.593811,174.369110 350.405579,173.725204 352.458801,173.310394 
	C355.486572,174.374588 358.272858,175.209702 361.059143,176.044800 
z"/>
<path fill="#FDE0A9" opacity="1.000000" stroke="none" 
	d="
M226.976624,108.990646 
	C227.124329,99.577721 221.514542,93.032578 210.778290,88.822296 
	C201.941330,85.356819 192.869873,85.718056 183.259918,85.746002 
	C185.029510,83.734337 187.277679,81.791771 189.853745,79.668251 
	C200.116348,80.307022 210.078217,80.885353 219.979828,81.999153 
	C237.910889,84.016190 253.967178,89.667946 264.875061,105.457947 
	C270.108826,113.034241 277.821320,116.430534 287.043915,117.118553 
	C294.641846,117.685364 302.194000,118.980370 309.729431,120.184235 
	C311.449768,120.459076 313.017914,121.686584 314.431824,122.728195 
	C302.791748,121.657745 291.467072,121.429893 280.203735,125.882156 
	C277.586548,126.566315 275.289246,127.151573 272.994812,127.328178 
	C273.983398,122.333740 271.585846,119.236458 268.179840,116.879745 
	C265.919647,115.315826 263.352417,114.107483 260.783020,113.093895 
	C249.960953,108.824760 238.812347,109.325043 227.446869,110.763535 
	C227.184723,109.950836 227.080673,109.470741 226.976624,108.990646 
z"/>
<path fill="#F8E3AC" opacity="1.000000" stroke="none" 
	d="
M121.998779,148.992096 
	C132.683990,137.192719 143.369217,125.393349 154.339478,113.587173 
	C154.717682,120.593605 158.549362,125.542007 164.168228,128.828903 
	C180.608902,138.446243 197.591583,138.033020 214.811172,131.072983 
	C216.168671,132.992722 217.168655,135.017685 218.795654,135.960068 
	C227.616272,141.069168 237.479797,141.079132 247.152161,141.598663 
	C245.353439,144.876495 243.673386,147.841141 241.854614,150.851807 
	C241.715897,150.897827 241.453064,151.021118 241.121674,150.842041 
	C225.989761,141.653748 194.071884,141.893097 180.880371,159.882690 
	C180.726593,159.740128 180.420227,159.453766 180.570984,159.142426 
	C182.083054,154.566025 183.444351,150.300964 184.884308,145.645218 
	C184.341187,143.788040 183.719421,142.321533 182.753601,140.689468 
	C173.310120,137.417160 164.028702,137.182587 154.317535,138.587677 
	C150.763550,138.312653 147.524261,138.214081 144.112091,138.415024 
	C137.667953,142.852325 131.396713,146.990082 124.805038,151.046082 
	C123.655998,150.306885 122.827393,149.649490 121.998779,148.992096 
z"/>
<path fill="#F6D89D" opacity="1.000000" stroke="none" 
	d="
M231.969757,323.936493 
	C233.657745,321.134918 235.849304,318.804626 237.305908,316.081268 
	C238.869919,313.157135 239.743393,309.863678 240.916534,305.873108 
	C239.566910,297.704895 238.218933,290.394989 236.870956,283.085052 
	C236.252136,275.204041 235.014114,267.311401 235.161804,259.444794 
	C235.375412,248.067688 236.301636,236.392288 241.400665,226.158127 
	C246.318604,216.287430 253.552795,207.857773 266.045654,206.936188 
	C267.511566,206.828033 268.953796,206.398621 270.698669,206.490540 
	C269.270508,208.081955 267.240387,209.030334 265.893402,210.574570 
	C262.776978,214.147293 259.991302,218.008499 257.071503,221.752731 
	C254.145966,229.543472 250.140579,237.116562 248.517258,245.169800 
	C245.020615,262.516479 245.845703,279.988251 249.488235,297.385559 
	C250.589279,302.644287 250.519760,308.295471 250.084366,313.694183 
	C249.417389,321.964905 239.858368,329.453888 231.969757,323.936493 
z"/>
<path fill="#F7D99D" opacity="1.000000" stroke="none" 
	d="
M103.334442,316.405457 
	C103.512085,314.791809 103.592003,313.005157 104.524467,312.167236 
	C111.416756,305.973877 112.721748,298.615143 110.529579,289.837219 
	C106.836327,275.048615 106.918304,260.140839 109.667549,245.101105 
	C110.923645,238.229721 112.832932,232.142395 118.121635,227.316879 
	C123.434486,222.469315 132.282013,221.724991 137.665680,228.511856 
	C128.839005,232.693420 123.124146,238.618637 122.297279,248.353104 
	C121.172325,252.618637 119.223412,256.857483 119.084068,261.154968 
	C118.731461,272.030304 119.395485,282.934937 119.239594,293.821899 
	C119.162682,299.193390 119.155548,304.915833 117.338318,309.820526 
	C115.241966,315.478546 110.033897,318.032135 103.334442,316.405457 
z"/>
<path fill="#F7F7F7" opacity="1.000000" stroke="none" 
	d="
M193.023956,356.120514 
	C193.025253,353.846466 193.025253,352.055786 193.025253,349.150421 
	C196.393616,350.249146 199.000793,351.099609 202.311432,352.179504 
	C207.936722,347.686462 213.383118,347.877106 219.274979,353.312012 
	C221.880356,351.971985 224.196625,350.267273 226.786514,349.548645 
	C233.489441,347.688660 239.088089,352.005981 239.202103,358.939026 
	C239.321899,366.223145 239.228928,373.510742 239.228928,380.971222 
	C236.393372,380.971222 233.944138,380.971222 230.867599,380.971222 
	C230.867599,374.919952 230.877838,368.978241 230.863159,363.036621 
	C230.856064,360.162323 230.981613,357.047882 227.113663,356.551788 
	C223.045715,356.030060 221.261749,358.715027 220.966858,362.164154 
	C220.445251,368.264648 220.352188,374.401794 220.066071,380.831238 
	C217.548904,380.831238 215.015823,380.831238 211.985550,380.831238 
	C211.985550,374.841064 212.011765,369.062592 211.974960,363.284485 
	C211.955322,360.202545 211.753922,356.927063 207.803268,356.512268 
	C203.732895,356.084930 202.159012,358.887695 202.064758,362.426178 
	C201.902267,368.526825 202.019745,374.634949 202.019745,380.935516 
	C198.630478,380.935516 196.176163,380.935516 193.022675,380.935516 
	C193.022675,372.781036 193.022675,364.692444 193.023956,356.120514 
z"/>
<path fill="#F7D89D" opacity="1.000000" stroke="none" 
	d="
M170.401276,286.871857 
	C170.089661,285.734711 169.788254,284.447021 170.298843,283.803040 
	C177.289627,274.985870 173.140167,265.871735 171.645676,256.581482 
	C170.536621,249.687042 170.342621,242.410980 171.215103,235.490753 
	C172.340256,226.566269 173.822601,217.398544 181.492020,210.961151 
	C186.067230,207.120972 191.185699,205.002701 197.053375,206.189133 
	C199.191208,206.621414 200.987549,208.742432 202.661774,210.601669 
	C199.566345,212.735046 196.748840,214.359756 193.964600,215.993683 
	C193.997849,216.002914 194.013947,215.935822 193.772690,216.018021 
	C193.372925,216.389236 193.214432,216.678268 192.703400,216.997253 
	C186.376038,222.016296 182.714645,228.127396 183.060822,236.182144 
	C179.774460,247.530594 180.554138,258.987701 182.445831,270.397827 
	C184.026505,279.931885 179.692642,286.378174 170.401276,286.871857 
z"/>
<path fill="#F35848" opacity="1.000000" stroke="none" 
	d="
M121.595985,148.946854 
	C122.827393,149.649490 123.655998,150.306885 124.729858,151.369141 
	C123.737717,153.202850 122.500328,154.631699 120.891853,156.018555 
	C118.703835,156.494308 116.547562,156.569183 115.152763,157.637878 
	C113.254929,159.092010 111.761971,161.188644 110.419731,163.223694 
	C108.894325,165.536407 107.726601,168.085052 106.403389,170.531143 
	C109.138855,170.678192 111.874321,170.825241 114.691925,171.313065 
	C114.644806,172.807098 114.515556,173.960373 113.918228,175.098083 
	C111.951736,175.065842 110.377701,174.759888 108.979240,175.125504 
	C107.892731,175.409576 107.025223,176.531326 106.060371,177.280746 
	C110.107269,181.112167 114.153191,184.944611 118.214317,188.760880 
	C118.256516,188.800537 118.523232,188.655502 118.643761,188.549591 
	C121.799324,185.777328 124.949402,182.998810 128.542053,180.119461 
	C132.314255,180.070526 135.644821,180.123489 138.822098,180.466553 
	C136.585922,183.091919 134.738632,185.704041 132.378006,187.712936 
	C123.725166,195.076431 113.313820,198.333084 102.233795,198.818848 
	C94.237038,199.169434 86.036980,198.914856 78.907593,194.163635 
	C91.502182,179.475586 104.058899,164.754501 116.776695,150.173935 
	C117.622871,149.203812 119.692574,149.300903 121.595985,148.946854 
M96.943497,193.469025 
	C100.135979,193.263657 103.328468,193.058304 107.378136,192.797791 
	C105.526176,188.389069 104.227745,184.653107 102.343491,181.240616 
	C101.837097,180.323517 98.577377,179.660797 98.231010,180.121475 
	C95.449707,183.820633 93.063728,187.817017 90.122581,192.399063 
	C92.970703,192.783279 94.562164,192.997971 96.943497,193.469025 
z"/>
<path fill="#FBE5B5" opacity="1.000000" stroke="none" 
	d="
M70.011780,228.006714 
	C68.081886,228.694504 66.107025,229.278671 64.231796,230.092407 
	C60.705425,231.622696 58.572628,231.177078 58.888626,226.293991 
	C58.850792,225.873566 58.903538,225.927841 59.131016,225.803925 
	C59.537838,225.343292 59.717186,225.006546 59.896530,224.669800 
	C65.561760,217.302612 71.226997,209.935425 77.400864,202.347916 
	C91.936623,206.817947 105.971115,206.459854 120.014679,202.556824 
	C121.315994,205.373779 122.613953,207.822968 124.210411,210.835449 
	C116.569870,216.403366 107.437218,217.591919 97.929832,217.510376 
	C95.652397,216.765656 93.148216,215.527115 91.387413,216.208786 
	C87.948326,217.540176 83.041039,215.036774 80.750191,219.994995 
	C80.507706,220.003677 80.022575,220.016022 79.700851,220.049652 
	C78.914803,220.713272 78.450485,221.343246 77.676895,222.118347 
	C74.915680,224.177872 72.463730,226.092300 70.011780,228.006714 
z"/>
<path fill="#F8F8F8" opacity="1.000000" stroke="none" 
	d="
M344.432617,338.329620 
	C344.856384,352.529266 344.856384,366.605957 344.856384,381.920258 
	C341.948639,380.714264 339.438507,379.673157 336.221558,378.338928 
	C335.652679,378.714935 334.149506,380.073181 332.386292,380.803589 
	C327.623444,382.776611 321.971741,380.849182 319.441376,376.314484 
	C315.395020,369.062927 315.588379,361.572693 319.482208,354.411987 
	C322.855225,348.209106 329.989258,347.649658 336.964417,352.637970 
	C336.964417,350.302063 336.964417,348.005798 336.964417,345.709503 
	C336.964417,343.399994 336.964417,341.090485 336.964417,338.206665 
	C339.494720,338.206665 341.751801,338.206665 344.432617,338.329620 
M335.582672,373.022400 
	C338.298828,368.935211 338.567230,364.401215 336.583771,360.208374 
	C335.751465,358.448914 332.749878,356.556702 330.943298,356.743591 
	C329.142059,356.929901 327.024017,359.375458 326.117676,361.328369 
	C325.285492,363.121582 325.790497,365.581421 325.867554,367.741791 
	C326.085175,373.844452 329.281036,375.853119 335.582672,373.022400 
z"/>
<path fill="#F6F6F6" opacity="1.000000" stroke="none" 
	d="
M160.926147,435.245178 
	C159.054474,429.727325 157.300018,424.586609 155.529999,419.400299 
	C164.228912,418.310303 164.146759,418.334808 166.535004,426.343658 
	C168.748291,433.765778 171.162903,441.127869 173.632141,448.971466 
	C176.877594,438.890411 180.027588,429.105865 183.229202,419.161011 
	C186.009155,419.161011 188.796234,419.161011 191.945923,419.161011 
	C187.614868,432.041534 183.534927,444.739716 178.870789,457.219513 
	C178.375458,458.544922 174.470932,459.001038 172.123260,459.074921 
	C170.750793,459.118134 168.499359,457.910492 168.066238,456.739349 
	C165.494583,449.785645 163.338882,442.678131 160.926147,435.245178 
z"/>
<path fill="#F6F6F6" opacity="1.000000" stroke="none" 
	d="
M282.120392,352.345947 
	C284.808868,348.685333 287.647430,349.187561 289.764557,353.369812 
	C293.621887,350.233948 297.674225,348.247650 302.931458,349.792572 
	C307.640900,351.176544 309.941315,354.335144 310.126862,358.806488 
	C310.429749,366.103424 310.208679,373.422150 310.208679,380.940552 
	C307.335907,380.940552 304.722046,380.940552 301.710541,380.940552 
	C301.710541,375.638062 301.838318,370.497681 301.667084,365.367279 
	C301.546417,361.751160 302.661926,357.105499 296.995361,356.546570 
	C292.542084,356.107300 290.856110,358.657074 290.816071,365.224030 
	C290.784851,370.342987 290.809814,375.462250 290.809814,380.857361 
	C287.645416,380.857361 285.088074,380.857361 282.118835,380.857361 
	C282.118835,371.390808 282.118835,362.100708 282.120392,352.345947 
z"/>
<path fill="#F5F5F5" opacity="1.000000" stroke="none" 
	d="
M250.471756,351.241638 
	C256.103882,349.449646 261.563995,347.736725 266.781281,350.444824 
	C269.292053,351.748108 272.577820,354.433441 272.798157,356.751007 
	C273.546234,364.619812 273.083862,372.603638 273.083862,381.906738 
	C270.193817,380.671204 267.777802,379.638336 265.297638,378.578033 
	C262.368500,379.364899 258.748230,380.881989 255.025925,381.198151 
	C250.474518,381.584747 246.752563,378.023224 245.969437,373.641510 
	C245.151413,369.064423 247.169800,364.794189 251.707764,363.359375 
	C255.706299,362.095123 260.009583,361.794617 264.219147,361.061432 
	C264.582214,355.252960 262.962952,354.770569 250.959427,357.814514 
	C250.671036,355.624390 250.392242,353.507172 250.471756,351.241638 
M258.564301,374.917358 
	C264.387878,374.349426 265.449097,372.849365 263.752899,365.652893 
	C260.643799,367.225342 257.833588,368.646637 255.023346,370.067902 
	C255.931854,371.663055 256.840332,373.258209 258.564301,374.917358 
z"/>
<path fill="#F6F6F6" opacity="1.000000" stroke="none" 
	d="
M315.122681,428.009644 
	C323.126678,429.702759 325.218323,432.212128 325.259125,439.832458 
	C325.291168,445.817291 325.266266,451.802429 325.249054,457.787415 
	C325.248169,458.095490 325.081482,458.403107 324.933075,458.913696 
	C321.582275,459.633606 318.395386,460.106384 317.784912,455.187134 
	C313.192566,459.085480 305.781830,460.700317 302.094849,458.476471 
	C298.142273,456.092407 297.019562,452.020111 298.030609,448.025116 
	C300.548920,438.074463 309.638245,440.963837 316.390594,439.441132 
	C315.684021,434.058716 313.921387,432.823914 308.289337,434.927460 
	C303.857758,436.582642 301.766510,435.471619 300.980927,430.405914 
	C305.251648,428.254028 309.789551,427.227722 315.122681,428.009644 
M315.983429,450.345856 
	C316.268555,448.685608 316.553680,447.025391 316.902985,444.991333 
	C314.953796,444.991333 313.466339,444.580902 312.404541,445.078583 
	C310.330200,446.050903 308.339844,447.365295 306.669708,448.919525 
	C306.265381,449.295746 307.127930,452.115021 307.604767,452.172272 
	C309.866669,452.444000 312.200104,452.192505 314.498993,452.011719 
	C314.879120,451.981842 315.214081,451.377441 315.983429,450.345856 
z"/>
<path fill="#F3F3F3" opacity="1.000000" stroke="none" 
	d="
M131.049606,356.599609 
	C130.842224,358.682648 130.585388,360.341705 130.638611,361.990692 
	C130.963516,372.058350 135.678345,375.592285 145.629547,373.359619 
	C147.196014,373.008118 148.811249,372.874084 150.408997,372.638733 
	C151.228058,379.339142 150.230438,380.625000 144.134140,381.178040 
	C133.718628,382.122894 126.941299,379.233765 123.664764,372.452087 
	C119.622948,364.086426 121.159012,351.226776 126.909119,345.291016 
	C132.764587,339.246521 141.472443,338.384674 152.164337,343.032349 
	C151.342621,345.231934 150.511948,347.455505 149.702438,349.622437 
	C135.900803,346.273529 133.551910,347.140320 131.049606,356.599609 
z"/>
<path fill="#F9F9F9" opacity="1.000000" stroke="none" 
	d="
M271.331055,441.953674 
	C271.450653,444.251678 271.680115,446.061493 271.715698,447.875122 
	C271.779541,451.131836 273.587616,453.427582 276.550171,452.571442 
	C278.733124,451.940613 281.674500,449.383423 281.907104,447.405701 
	C282.611420,441.417694 282.161804,435.293915 282.161804,428.971863 
	C285.455994,428.971863 288.185760,428.971863 291.108826,428.971863 
	C291.108826,438.924164 291.108826,448.680389 291.108826,459.802155 
	C288.086731,458.813110 285.532318,457.977112 282.977905,457.141113 
	C283.130829,456.805084 283.283722,456.469055 283.436646,456.133026 
	C281.243164,457.173981 279.140442,458.795471 276.840454,459.155060 
	C267.090973,460.679321 262.862732,456.865234 262.819489,446.945099 
	C262.793579,441.000793 262.814728,435.056274 262.814728,428.910980 
	C265.685547,428.910980 268.145630,428.910980 271.353546,428.910980 
	C271.353546,433.052002 271.353546,437.259644 271.331055,441.953674 
z"/>
<path fill="#F5F5F5" opacity="1.000000" stroke="none" 
	d="
M157.871338,372.925079 
	C157.644852,367.815887 156.797424,362.948029 157.598373,358.368469 
	C158.589203,352.703247 166.040588,348.656036 172.504440,349.204926 
	C179.139084,349.768372 184.959000,354.714020 185.907455,360.594543 
	C187.399887,369.847565 185.187378,376.128723 179.272232,379.431519 
	C171.326965,383.867767 162.828491,381.417999 157.871338,372.925079 
M175.680801,372.834320 
	C176.029282,368.670044 176.892120,364.450623 176.454468,360.370667 
	C176.295746,358.891022 172.992828,356.683624 171.189987,356.744537 
	C169.383621,356.805603 166.789307,358.959747 166.112534,360.780792 
	C165.210648,363.207489 165.473022,366.250885 165.867279,368.936646 
	C166.667755,374.389832 169.968750,375.831726 175.680801,372.834320 
z"/>
<path fill="#F2A14F" opacity="1.000000" stroke="none" 
	d="
M183.473785,236.129517 
	C182.714645,228.127396 186.376038,222.016296 192.908386,216.870880 
	C193.734543,216.515488 193.917236,216.255920 194.013947,215.935822 
	C194.013947,215.935822 193.997849,216.002914 194.399704,216.021484 
	C200.630615,215.009705 206.459671,213.979340 212.288727,212.948975 
	C218.814072,215.023071 222.877899,221.875076 221.821335,229.481567 
	C216.720398,230.618546 211.697571,231.415939 206.680740,232.249420 
	C199.080566,233.512070 191.484543,234.799789 183.473785,236.129517 
z"/>
<path fill="#F6F6F6" opacity="1.000000" stroke="none" 
	d="
M370.275543,378.310852 
	C364.531158,382.212646 358.082550,382.766541 355.118469,378.874512 
	C353.260315,376.434723 352.409698,372.620483 352.489899,369.457977 
	C352.602203,365.030060 356.434814,363.123718 360.304230,362.331177 
	C363.515717,361.673370 366.875793,361.741119 370.180786,361.486633 
	C371.181519,355.410034 368.085938,354.404022 358.133240,357.840332 
	C357.540863,357.046082 356.822113,356.202606 356.244232,355.271698 
	C355.732635,354.447571 355.377747,353.526215 354.760834,352.248291 
	C361.288361,349.095062 367.839294,347.589355 374.291626,351.002686 
	C376.517822,352.180359 378.762787,355.454529 378.961670,357.934448 
	C379.567993,365.494446 379.181610,373.134033 379.181610,380.748199 
	C375.847321,381.526672 373.201050,381.689362 372.416229,377.763306 
	C372.410309,377.733673 371.191833,377.946442 370.275543,378.310852 
M370.813293,367.475098 
	C368.264435,367.603485 365.509033,367.201019 363.251862,368.079163 
	C362.083191,368.533813 361.518005,371.226746 361.321503,372.980286 
	C361.275940,373.387085 363.810608,374.434265 365.223358,374.588623 
	C369.824677,375.091553 370.735626,371.988434 370.813293,367.475098 
z"/>
<path fill="#CC2C27" opacity="1.000000" stroke="none" 
	d="
M214.743057,130.678528 
	C197.591583,138.033020 180.608902,138.446243 164.168228,128.828903 
	C158.549362,125.542007 154.717682,120.593605 154.430298,113.245926 
	C154.275177,111.095329 154.314301,109.279167 154.577393,107.145035 
	C155.773026,117.142128 162.476685,122.559380 171.430435,125.692818 
	C187.901764,131.457092 203.854324,130.663605 218.861069,121.047768 
	C223.074142,118.348160 226.122787,114.797661 226.712769,109.246216 
	C227.080673,109.470741 227.184723,109.950836 227.327484,111.118126 
	C227.378113,112.550880 227.390060,113.296440 227.256836,114.340042 
	C227.137146,115.073936 227.162613,115.509789 227.065399,116.292816 
	C225.238480,123.372375 219.839462,126.893967 214.743057,130.678528 
z"/>
<path fill="#F5F5F5" opacity="1.000000" stroke="none" 
	d="
M248.304169,423.800903 
	C248.399796,425.537781 248.472443,426.830841 248.561966,428.424133 
	C251.373215,428.591003 253.969498,428.745117 256.744202,428.909821 
	C256.744202,430.800354 256.744202,432.572784 256.744202,434.797180 
	C254.021805,434.918671 251.440765,435.033844 248.328400,435.172699 
	C248.328400,439.993317 248.016144,444.626465 248.524277,449.167816 
	C248.671112,450.480103 251.030502,451.852753 252.652725,452.576111 
	C253.620071,453.007477 255.126526,452.229828 256.694916,451.939301 
	C256.694916,454.253052 256.694916,456.189606 256.694916,459.064819 
	C252.813522,459.064819 248.807999,459.681122 245.088120,458.913422 
	C240.108185,457.885620 239.727005,453.111938 239.268631,449.044525 
	C238.898697,445.761902 239.213226,442.405090 239.164841,439.082062 
	C239.137909,437.231171 239.871674,434.853912 236.656403,434.873810 
	C236.768814,433.315094 236.409454,431.494293 237.097687,430.255432 
	C238.309326,428.074371 240.404861,426.394073 241.687790,424.240509 
	C243.646576,420.952393 245.810410,421.582672 248.304169,423.800903 
z"/>
<path fill="#F3A351" opacity="1.000000" stroke="none" 
	d="
M122.713570,248.353729 
	C123.124146,238.618637 128.839005,232.693420 137.742126,228.847137 
	C142.313278,228.827560 146.900879,227.965820 150.643951,229.364395 
	C153.662903,230.492401 155.662292,234.349106 158.077026,237.742508 
	C158.004807,239.258286 157.969543,240.026779 157.934296,240.795273 
	C157.934280,240.795273 157.872192,240.914932 157.398651,240.943573 
	C152.291595,242.251144 147.658081,243.530060 143.024582,244.808960 
	C136.393005,245.990768 129.761429,247.172546 122.713570,248.353729 
z"/>
<path fill="#F1A250" opacity="1.000000" stroke="none" 
	d="
M64.957825,260.281219 
	C63.531990,252.455872 71.248962,241.921387 79.108719,240.602875 
	C89.327232,238.888672 93.364471,240.666931 96.173424,248.760956 
	C96.660530,250.164536 95.256859,252.224319 94.357002,254.034058 
	C86.349419,255.678711 78.710052,257.264099 71.074234,258.866364 
	C69.146744,259.270813 67.230530,259.729004 64.957825,260.281219 
z"/>
<path fill="#F1A454" opacity="1.000000" stroke="none" 
	d="
M257.422699,221.678864 
	C259.991302,218.008499 262.776978,214.147293 265.893402,210.574570 
	C267.240387,209.030334 269.270508,208.081955 271.116028,206.555359 
	C278.821716,204.188538 286.350952,200.879211 294.274628,204.722900 
	C296.319672,205.714935 298.341858,207.006653 299.898071,208.620255 
	C300.462494,209.205414 299.635132,211.132858 299.266541,212.739105 
	C290.761505,214.633530 282.417938,216.164597 274.109161,217.865448 
	C268.638153,218.985382 263.217224,220.349945 257.422699,221.678864 
z"/>
<path fill="#D12D26" opacity="1.000000" stroke="none" 
	d="
M120.011322,202.189072 
	C105.971115,206.459854 91.936623,206.817947 77.545143,202.033356 
	C77.558685,199.483337 77.936592,197.027542 78.611046,194.367706 
	C86.036980,198.914856 94.237038,199.169434 102.233795,198.818848 
	C113.313820,198.333084 123.725166,195.076431 132.378006,187.712936 
	C134.738632,185.704041 136.585922,183.091919 139.265427,180.435364 
	C140.157349,180.136185 140.452652,180.158279 140.574875,180.559601 
	C140.214508,182.589325 140.027237,184.239822 139.578903,186.098969 
	C134.984238,194.156631 127.639160,198.344727 120.011322,202.189072 
z"/>
<path fill="#F2F2F2" opacity="1.000000" stroke="none" 
	d="
M221.869507,456.496185 
	C220.093887,461.804199 216.420395,458.079987 213.424042,459.282593 
	C213.424042,449.002319 213.424042,439.249939 213.424042,429.118378 
	C216.392685,428.953705 220.247665,426.361481 220.751984,431.588470 
	C224.627167,430.099670 228.406754,428.647614 232.824066,426.950531 
	C232.824066,430.708435 232.824066,433.093689 232.824066,435.423340 
	C222.426865,436.999420 221.890717,437.634583 221.873734,448.066559 
	C221.869400,450.727295 221.871445,453.388031 221.869507,456.496185 
z"/>
<path fill="#FDFDFD" opacity="1.000000" stroke="none" 
	d="
M342.141357,447.990051 
	C342.141357,451.940430 342.141357,455.391846 342.141357,459.028870 
	C339.315613,459.028870 336.896362,459.028870 334.114685,459.028870 
	C334.114685,444.954285 334.114685,430.935455 334.114685,416.585876 
	C336.467468,416.585876 338.880554,416.585876 342.141357,416.585876 
	C342.141357,426.760132 342.141357,437.125580 342.141357,447.990051 
z"/>
<path fill="#F2F2F2" opacity="1.000000" stroke="none" 
	d="
M204.886078,434.247375 
	C204.886536,442.692078 204.886536,450.663849 204.886536,458.945984 
	C201.919861,458.945984 199.327667,458.945984 196.435577,458.945984 
	C196.435577,449.008484 196.435577,439.118256 196.435577,428.950439 
	C199.039719,428.950439 201.639008,428.950439 204.640137,428.950439 
	C204.723938,430.597351 204.804764,432.185883 204.886078,434.247375 
z"/>
<path fill="#F2F2F2" opacity="1.000000" stroke="none" 
	d="
M203.202072,424.301697 
	C202.701874,424.570953 202.550827,424.659485 202.390335,424.682678 
	C199.631332,425.081116 196.719803,425.250519 196.031845,421.791199 
	C195.748199,420.364838 196.572220,417.591583 197.503448,417.284668 
	C199.444580,416.644867 201.792587,417.239471 203.973419,417.326874 
	C203.831223,419.581421 203.689026,421.835999 203.202072,424.301697 
z"/>
<path fill="#F1A454" opacity="1.000000" stroke="none" 
	d="
M143.434082,244.833267 
	C147.658081,243.530060 152.291595,242.251144 157.331238,240.945038 
	C157.795441,241.240356 157.918198,241.535995 158.163300,242.038788 
	C153.428467,243.134399 148.636032,243.995987 143.434082,244.833267 
z"/>
<path fill="#FAECC7" opacity="1.000000" stroke="none" 
	d="
M59.617981,224.780441 
	C59.717186,225.006546 59.537838,225.343292 59.093224,225.801773 
	C58.998444,225.579376 59.168938,225.235229 59.617981,224.780441 
z"/>
<path fill="#FDF8EA" opacity="1.000000" stroke="none" 
	d="
M120.014679,202.556824 
	C127.639160,198.344727 134.984238,194.156631 140.056473,186.131531 
	C146.531097,185.958466 152.267090,185.961487 158.232956,186.247498 
	C160.662430,186.982407 162.862045,187.434326 165.451050,187.908813 
	C166.880051,187.967789 167.919617,188.004196 169.013565,188.359283 
	C169.731567,189.084351 170.395203,189.490753 171.423462,189.925568 
	C174.547028,192.289185 177.305954,194.624390 180.064896,196.959579 
	C182.056183,205.212540 180.863983,207.164322 172.114883,209.125732 
	C159.892838,211.865723 147.586166,214.245880 135.419250,217.205627 
	C130.457184,218.412704 125.630600,220.443695 120.981682,222.612762 
	C112.548264,226.547562 103.843849,228.313446 94.514023,228.103439 
	C85.532692,227.901337 76.702965,229.130539 69.324760,235.443222 
	C68.869186,235.088516 68.413605,234.733795 67.958023,234.379089 
	C68.612747,232.499222 69.267471,230.619370 69.966988,228.373108 
	C72.463730,226.092300 74.915680,224.177872 77.998672,222.086685 
	C79.093994,221.278610 79.558281,220.647308 80.022568,220.016022 
	C80.022575,220.016022 80.507706,220.003677 81.165421,220.003189 
	C87.228447,219.296600 92.633751,218.590500 98.039062,217.884399 
	C107.437218,217.591919 116.569870,216.403366 124.210411,210.835449 
	C122.613953,207.822968 121.315994,205.373779 120.014679,202.556824 
z"/>
<path fill="#FDF7E6" opacity="1.000000" stroke="none" 
	d="
M352.217346,173.081299 
	C350.405579,173.725204 348.593811,174.369110 346.411377,175.025848 
	C337.200592,176.126907 330.199890,181.403564 322.464172,185.094849 
	C316.790680,187.802094 310.530212,190.222397 304.366913,190.715469 
	C297.057159,191.300247 289.575195,189.628128 282.160339,189.027740 
	C270.102112,188.051361 258.595154,189.305344 248.888931,197.561646 
	C242.275711,203.186966 234.185669,202.807144 226.617355,201.693222 
	C217.646805,200.372925 208.923874,200.122437 200.087540,201.906815 
	C199.654099,201.994324 199.145859,201.711411 197.971008,201.437363 
	C199.033264,199.414856 199.980820,197.610764 201.368561,195.443634 
	C202.582306,195.013947 203.355850,194.947311 204.497223,194.884842 
	C205.584473,195.031204 206.303909,195.173386 207.222473,195.503601 
	C207.779297,195.714005 208.136963,195.736389 208.930603,195.759674 
	C222.475815,196.769928 234.744751,194.332413 246.197845,186.923676 
	C249.742584,185.739288 252.896027,184.549103 256.012512,183.268967 
	C257.707336,182.572800 259.339386,181.723862 261.352997,180.924866 
	C263.470947,180.259567 265.235657,179.613220 267.399841,178.976288 
	C268.863922,178.954132 269.928558,178.922562 271.387756,178.877136 
	C278.672363,178.231171 285.571320,177.678207 292.445801,176.907303 
	C294.023224,176.730392 295.516602,175.804031 297.480835,175.166641 
	C299.949127,175.091934 301.985260,175.073181 304.231079,175.292450 
	C306.286865,175.103485 308.133026,174.676498 310.298798,174.127472 
	C311.070221,173.968124 311.522064,173.930801 312.112854,174.133377 
	C312.854645,174.007996 313.457489,173.642700 314.369324,173.161316 
	C315.115417,173.034561 315.552490,173.023865 316.231079,173.294830 
	C319.468597,172.971359 322.590881,172.717072 325.436096,171.693008 
	C332.930298,168.995651 340.366882,167.609116 348.356750,170.959991 
	C349.864868,171.707092 351.041107,172.394196 352.217346,173.081299 
z"/>
<path fill="#CD2F2A" opacity="1.000000" stroke="none" 
	d="
M245.791168,186.880386 
	C234.744751,194.332413 222.475815,196.769928 208.733231,195.565811 
	C207.741058,195.352585 207.382202,195.334091 207.023346,195.315582 
	C206.303909,195.173386 205.584473,195.031204 204.253403,194.652359 
	C202.757812,194.347031 201.873871,194.278336 200.989914,194.209656 
	C200.555771,194.109390 200.121628,194.009140 199.117630,193.667572 
	C196.733734,192.620911 194.870956,191.909103 193.113983,190.994171 
	C185.031509,186.785202 178.990448,181.135849 179.700531,171.152130 
	C183.578156,178.881943 189.740417,183.484787 197.583252,186.003494 
	C207.808350,189.287277 218.061386,190.238831 228.677902,187.360199 
	C238.166992,184.787262 246.844635,181.508240 251.330765,171.826782 
	C251.385651,171.708389 252.190475,171.937515 252.706833,172.387253 
	C252.730820,178.604965 249.562119,182.891571 245.791168,186.880386 
z"/>
<path fill="#F8E3AC" opacity="1.000000" stroke="none" 
	d="
M179.390808,171.069305 
	C178.990448,181.135849 185.031509,186.785202 193.113983,190.994171 
	C194.870956,191.909103 196.733734,192.620911 198.781937,193.679199 
	C193.180847,196.269455 187.381836,198.816025 180.452972,197.020355 
	C177.305954,194.624390 174.547028,192.289185 171.360657,189.615845 
	C170.275208,188.865341 169.617203,188.452972 168.959198,188.040619 
	C167.919617,188.004196 166.880051,187.967789 165.365860,187.570374 
	C162.595200,186.794418 160.299133,186.379456 158.003082,185.964493 
	C152.267090,185.961487 146.531097,185.958466 140.317535,185.922882 
	C140.027237,184.239822 140.214508,182.589325 140.792572,180.292801 
	C142.948685,179.288498 144.842819,179.222061 146.452621,178.511475 
	C149.860382,177.007187 152.147858,178.302322 155.333588,179.904572 
	C160.155075,182.329544 165.899567,183.033081 171.324646,184.096985 
	C174.107620,184.642746 175.179108,182.780762 174.905182,179.692001 
	C175.041779,174.554214 175.076126,169.826080 175.371613,164.899902 
	C177.228592,162.952499 178.824402,161.203140 180.420227,159.453766 
	C180.420227,159.453766 180.726593,159.740128 180.878464,160.274872 
	C180.483826,164.229507 179.937317,167.649399 179.390808,171.069305 
z"/>
<path fill="#FDF8EA" opacity="1.000000" stroke="none" 
	d="
M236.466309,283.062988 
	C238.218933,290.394989 239.566910,297.704895 240.868256,305.459930 
	C240.120834,307.063904 239.596893,308.393280 238.680145,309.343811 
	C237.085571,310.997101 234.854736,313.924622 233.601151,313.597229 
	C231.471542,313.041107 228.948990,310.677551 228.257721,308.535797 
	C226.031067,301.636963 225.024353,294.811127 228.617233,287.543732 
	C230.531525,283.671631 232.479507,282.743500 236.466309,283.062988 
z"/>
<path fill="#FDF7E6" opacity="1.000000" stroke="none" 
	d="
M313.527954,272.977417 
	C314.294952,271.400421 314.902893,270.205170 315.611969,268.811035 
	C320.850708,274.179932 320.218536,284.877136 313.740692,288.266663 
	C313.606201,282.874695 313.487549,278.116913 313.527954,272.977417 
z"/>
<path fill="#CF4F27" opacity="1.000000" stroke="none" 
	d="
M212.122040,212.654602 
	C206.459671,213.979340 200.630615,215.009705 194.366455,216.012268 
	C196.748840,214.359756 199.566345,212.735046 202.713013,210.950653 
	C204.423584,210.819778 205.804977,210.848602 207.839905,210.904022 
	C208.660461,210.896515 208.827515,210.862427 208.994553,210.828339 
	C209.981476,211.338959 210.968414,211.849594 212.122040,212.654602 
z"/>
<path fill="#F1A454" opacity="1.000000" stroke="none" 
	d="
M158.221634,240.805603 
	C157.969543,240.026779 158.004807,239.258286 158.078583,238.099686 
	C158.247726,238.745026 158.378357,239.780472 158.221634,240.805603 
z"/>
<path fill="#F8E3AC" opacity="1.000000" stroke="none" 
	d="
M200.992950,194.436005 
	C201.873871,194.278336 202.757812,194.347031 203.885590,194.648193 
	C203.355850,194.947311 202.582306,195.013947 201.420151,195.097137 
	C201.031555,195.113693 200.996002,194.662354 200.992950,194.436005 
z"/>
<path fill="#F7D89D" opacity="1.000000" stroke="none" 
	d="
M208.908295,210.680450 
	C208.827515,210.862427 208.660461,210.896515 208.251297,210.849030 
	C208.280121,210.689163 208.551071,210.610855 208.908295,210.680450 
z"/>
<path fill="#F45949" opacity="1.000000" stroke="none" 
	d="
M280.523560,125.783272 
	C291.467072,121.429893 302.791748,121.657745 314.667969,122.998489 
	C322.917023,126.004578 330.352142,129.547791 336.063202,135.930496 
	C336.676147,136.615555 337.735168,136.901535 338.487854,137.865326 
	C338.500763,142.257629 338.613098,146.157257 338.398041,150.098801 
	C331.658356,159.536041 322.392944,164.344406 311.561523,166.647476 
	C300.261841,169.050110 289.315186,168.405228 279.267151,162.758469 
	C282.679871,162.028610 285.745483,161.456055 289.109314,161.171417 
	C297.964264,163.677948 306.378815,163.551163 315.734558,160.052414 
	C312.368927,156.505066 309.610718,153.597931 306.920776,150.383224 
	C308.135162,149.314682 309.281250,148.553680 310.791534,147.943359 
	C314.043335,149.705795 316.886230,151.405106 319.828705,152.909607 
	C324.705078,155.402878 326.700775,154.713196 329.103149,149.705093 
	C329.735260,148.387405 330.004456,146.884277 330.356873,145.445862 
	C331.598450,140.378860 330.919800,139.488556 325.680023,140.047775 
	C321.431610,140.501190 317.222382,141.321136 312.928650,141.587128 
	C312.917023,140.141937 312.972534,139.088150 313.386475,137.995392 
	C316.762695,136.489944 319.780457,135.023468 322.798187,133.556976 
	C322.811859,132.997726 322.825500,132.438477 322.839142,131.879211 
	C317.817383,130.268982 312.850067,128.422287 307.729126,127.242653 
	C306.670593,126.998817 305.040283,129.237076 303.281494,130.311310 
	C296.477081,129.179428 290.059601,128.095718 283.657349,126.928375 
	C282.578979,126.731766 281.566498,126.174110 280.523560,125.783272 
z"/>
<path fill="#FCE2A8" opacity="1.000000" stroke="none" 
	d="
M338.725464,150.056870 
	C338.613098,146.157257 338.500763,142.257629 338.709473,138.116058 
	C343.009216,139.919083 347.046295,141.858994 350.955048,144.029892 
	C360.402985,149.277161 365.316864,157.048843 363.593994,168.787949 
	C362.802460,170.983276 362.423401,172.542526 362.044373,174.101791 
	C362.021118,174.273788 361.997894,174.445786 361.664551,174.960266 
	C361.159058,175.519562 361.051819,175.773590 361.032745,176.064865 
	C361.032745,176.064865 361.019470,176.029556 361.039307,176.037170 
	C358.272858,175.209702 355.486572,174.374588 352.458801,173.310394 
	C351.041107,172.394196 349.864868,171.707092 348.350159,170.520706 
	C348.051819,167.736588 347.829895,165.410721 348.180298,163.174515 
	C349.318604,155.910126 346.312347,152.144775 338.930725,151.679749 
	C338.811768,150.926300 338.768616,150.491592 338.725464,150.056870 
z"/>
<path fill="#F8DB9E" opacity="1.000000" stroke="none" 
	d="
M362.319122,173.886475 
	C362.423401,172.542526 362.802460,170.983276 363.471985,169.232620 
	C363.372925,170.584534 362.983429,172.127853 362.319122,173.886475 
z"/>
<path fill="#F8DB9E" opacity="1.000000" stroke="none" 
	d="
M361.237183,175.969940 
	C361.051819,175.773590 361.159058,175.519562 361.521179,175.177551 
	C361.775726,175.377396 361.693634,175.651627 361.237183,175.969940 
z"/>
<path fill="#F97F7C" opacity="1.000000" stroke="none" 
	d="
M167.915863,102.742477 
	C171.174362,102.515984 174.177414,102.241203 177.069046,102.687851 
	C178.069153,102.842323 179.499924,104.826027 179.444153,105.907684 
	C179.387756,107.001534 177.785782,108.840508 176.770370,108.903900 
	C173.842590,109.086693 170.668015,109.091644 167.974274,108.111450 
	C165.613144,107.252304 165.376236,104.875336 167.915863,102.742477 
z"/>
<path fill="#F97F7C" opacity="1.000000" stroke="none" 
	d="
M197.028427,123.117920 
	C195.693909,123.375481 194.506027,123.977730 193.804947,123.621628 
	C191.494171,122.447876 189.359543,120.927315 187.157288,119.539932 
	C188.829117,118.186058 190.520096,115.702438 192.168533,115.730370 
	C194.979523,115.777992 197.763794,117.402679 200.559265,118.364853 
	C199.505524,119.917793 198.451782,121.470734 197.028427,123.117920 
z"/>
<path fill="#F97F7C" opacity="1.000000" stroke="none" 
	d="
M214.120575,103.902695 
	C215.981659,107.566147 214.262390,109.655571 211.205154,109.837021 
	C207.872025,110.034843 203.481918,111.886948 201.737854,107.017014 
	C201.413681,106.111832 202.968704,103.474251 203.820679,103.394676 
	C207.122803,103.086250 210.491257,103.488174 214.120575,103.902695 
z"/>
<path fill="#F97F7C" opacity="1.000000" stroke="none" 
	d="
M183.420044,94.354393 
	C187.177032,93.438347 190.747345,92.640518 194.335953,92.547470 
	C194.958298,92.531342 195.657913,95.496300 196.321838,97.084320 
	C193.383682,97.731796 190.411819,98.957405 187.521225,98.788918 
	C186.019882,98.701408 184.662186,96.149857 183.420044,94.354393 
z"/>
<path fill="#FCF8E9" opacity="1.000000" stroke="none" 
	d="
M227.402008,114.042000 
	C227.390060,113.296440 227.378113,112.550880 227.485565,111.450729 
	C238.812347,109.325043 249.960953,108.824760 260.783020,113.093895 
	C263.352417,114.107483 265.919647,115.315826 268.179840,116.879745 
	C271.585846,119.236458 273.983398,122.333740 272.628632,127.477982 
	C262.631531,130.003815 254.292664,134.402649 247.270813,141.285461 
	C237.479797,141.079132 227.616272,141.069168 218.795654,135.960068 
	C217.168655,135.017685 216.168671,132.992722 214.811172,131.072983 
	C219.839462,126.893967 225.238480,123.372375 227.263550,116.165161 
	C227.523575,115.140884 227.462784,114.591446 227.402008,114.042000 
z"/>
<path fill="#70AF53" opacity="1.000000" stroke="none" 
	d="
M247.152161,141.598663 
	C254.292664,134.402649 262.631531,130.003815 272.625732,127.886642 
	C275.289246,127.151573 277.586548,126.566315 280.203735,125.882156 
	C281.566498,126.174110 282.578979,126.731766 283.657349,126.928375 
	C290.059601,128.095718 296.477081,129.179428 303.405853,130.619843 
	C306.113586,132.880203 308.304901,134.811981 310.111237,136.914520 
	C309.266022,137.267792 308.783997,137.651230 308.348785,137.603943 
	C287.469299,135.334595 267.722626,139.614487 248.731369,148.026382 
	C246.969925,148.806580 245.640244,150.561539 243.818573,151.799316 
	C243.015808,151.425064 242.504562,151.115433 241.993317,150.805786 
	C243.673386,147.841141 245.353439,144.876495 247.152161,141.598663 
z"/>
<path fill="#E8463C" opacity="1.000000" stroke="none" 
	d="
M179.700531,171.152130 
	C179.937317,167.649399 180.483826,164.229507 181.032227,160.417419 
	C194.071884,141.893097 225.989761,141.653748 241.062103,151.222351 
	C242.508179,154.075333 243.188461,156.940567 244.995422,158.501984 
	C246.807587,160.067902 249.743546,160.333267 252.162766,161.583221 
	C252.307449,165.333359 252.476349,168.668884 252.645248,172.004410 
	C252.190475,171.937515 251.385651,171.708389 251.330765,171.826782 
	C246.844635,181.508240 238.166992,184.787262 228.677902,187.360199 
	C218.061386,190.238831 207.808350,189.287277 197.583252,186.003494 
	C189.740417,183.484787 183.578156,178.881943 179.700531,171.152130 
M215.055084,174.993073 
	C213.723282,174.987991 212.157684,174.532944 211.111084,175.076736 
	C209.254898,176.041183 207.713776,177.612015 206.040817,178.929108 
	C207.726395,180.272446 209.321030,181.763290 211.142456,182.886322 
	C211.868652,183.334061 213.300674,183.330994 214.055618,182.904037 
	C216.072830,181.763275 217.897263,180.281631 219.798325,178.935471 
	C218.487167,177.659271 217.176025,176.383057 215.055084,174.993073 
M211.303314,153.688416 
	C212.592499,158.498199 217.690155,160.446106 222.415115,157.731659 
	C223.508865,157.103317 224.835815,155.610092 224.777954,154.587143 
	C224.713440,153.447067 223.142944,151.422211 222.312012,151.463730 
	C218.753189,151.641617 215.225357,152.438965 211.303314,153.688416 
M228.566742,169.744781 
	C227.859970,171.331375 227.153214,172.917984 226.446457,174.504578 
	C229.527115,175.204590 232.623398,176.450592 235.681519,176.363068 
	C237.106812,176.322296 238.458130,173.696991 239.842987,172.243195 
	C238.790161,171.280899 237.848129,169.699142 236.661163,169.486862 
	C234.280334,169.061081 231.765671,169.383499 228.566742,169.744781 
M198.574127,161.009781 
	C196.471207,162.434082 194.368271,163.858383 192.265335,165.282684 
	C194.598236,166.519211 196.915909,168.679779 199.268555,168.718521 
	C201.395081,168.753555 205.189117,166.679901 205.383698,165.167572 
	C205.853622,161.515396 202.123840,161.458237 198.574127,161.009781 
z"/>
<path fill="#64A84C" opacity="1.000000" stroke="none" 
	d="
M121.262939,156.060547 
	C122.500328,154.631699 123.737717,153.202850 125.050293,151.450928 
	C131.396713,146.990082 137.667953,142.852325 144.426880,138.463043 
	C146.839859,141.252670 149.570312,144.058609 150.540100,147.378830 
	C153.495392,157.496613 159.763199,165.046051 167.280396,171.999268 
	C169.449890,174.005997 170.548538,177.170441 171.684906,179.872955 
	C162.177338,180.823959 155.210190,177.259430 149.992783,169.549133 
	C149.993042,167.431778 149.991180,165.736984 150.282089,163.885925 
	C150.535812,162.750305 150.894150,161.275879 150.392303,160.873016 
	C147.452820,158.513351 144.312210,156.404190 141.219498,154.196274 
	C141.184021,154.810242 141.121613,155.889969 140.730331,157.112549 
	C132.608719,161.826050 124.815979,166.396729 116.677780,170.948624 
	C116.102768,170.907425 115.873215,170.884995 115.687393,170.473755 
	C117.575066,165.410141 119.419006,160.735352 121.262939,156.060547 
z"/>
<path fill="#538A3C" opacity="1.000000" stroke="none" 
	d="
M252.186981,161.168625 
	C249.743546,160.333267 246.807587,160.067902 244.995422,158.501984 
	C243.188461,156.940567 242.508179,154.075333 241.393494,151.401428 
	C241.453064,151.021118 241.715897,150.897827 241.854614,150.851807 
	C242.504562,151.115433 243.015808,151.425064 244.188202,151.886230 
	C255.015869,155.026352 265.132111,157.597427 275.999603,156.119003 
	C290.111511,154.199188 302.575317,149.437820 312.261475,138.223114 
	C312.685059,138.109543 312.856537,138.071945 313.028046,138.034348 
	C312.972534,139.088150 312.917023,140.141937 312.757477,141.895004 
	C311.911407,144.327072 311.169373,146.059875 310.427368,147.792679 
	C309.281250,148.553680 308.135162,149.314682 306.582031,150.477249 
	C300.387024,154.213715 294.599060,157.548584 288.811096,160.883484 
	C285.745483,161.456055 282.679871,162.028610 278.838196,162.729736 
	C275.019318,163.250793 271.976562,163.643326 268.564331,163.879044 
	C262.858917,162.871033 257.522949,162.019821 252.186981,161.168625 
z"/>
<path fill="#8DC45F" opacity="1.000000" stroke="none" 
	d="
M172.138123,179.804123 
	C170.548538,177.170441 169.449890,174.005997 167.280396,171.999268 
	C159.763199,165.046051 153.495392,157.496613 150.540100,147.378830 
	C149.570312,144.058609 146.839859,141.252670 144.599762,138.163513 
	C147.524261,138.214081 150.763550,138.312653 154.527451,138.892303 
	C157.055054,141.906021 159.058014,144.438644 161.207306,147.354462 
	C161.571686,149.997055 161.592957,152.299911 162.078720,154.500259 
	C162.389923,155.909836 163.055984,157.786423 164.143387,158.367523 
	C166.519348,159.637253 169.265457,160.214279 171.926361,161.417297 
	C173.031723,162.872864 174.071091,163.985397 175.110458,165.097946 
	C175.076126,169.826080 175.041779,174.554214 174.570465,179.670334 
	C173.468369,179.973587 172.803238,179.888855 172.138123,179.804123 
z"/>
<path fill="#6BB153" opacity="1.000000" stroke="none" 
	d="
M171.860352,161.074280 
	C169.265457,160.214279 166.519348,159.637253 164.143387,158.367523 
	C163.055984,157.786423 162.389923,155.909836 162.078720,154.500259 
	C161.592957,152.299911 161.571686,149.997055 161.596542,147.356934 
	C168.925522,144.935852 176.011597,142.895447 183.097656,140.855042 
	C183.719421,142.321533 184.341187,143.788040 184.558777,145.707703 
	C180.056519,151.132004 175.958435,156.103149 171.860352,161.074280 
z"/>
<path fill="#61A247" opacity="1.000000" stroke="none" 
	d="
M182.753601,140.689468 
	C176.011597,142.895447 168.925522,144.935852 161.450226,146.973770 
	C159.058014,144.438644 157.055054,141.906021 154.842163,139.068756 
	C164.028702,137.182587 173.310120,137.417160 182.753601,140.689468 
z"/>
<path fill="#538A3C" opacity="1.000000" stroke="none" 
	d="
M171.926361,161.417297 
	C175.958435,156.103149 180.056519,151.132004 184.480133,146.098389 
	C183.444351,150.300964 182.083054,154.566025 180.570984,159.142426 
	C178.824402,161.203140 177.228592,162.952499 175.371613,164.899902 
	C174.071091,163.985397 173.031723,162.872864 171.926361,161.417297 
z"/>
<path fill="#CF4F27" opacity="1.000000" stroke="none" 
	d="
M193.772690,216.018021 
	C193.917236,216.255920 193.734543,216.515488 193.260895,216.840912 
	C193.214432,216.678268 193.372925,216.389236 193.772690,216.018021 
z"/>
<path fill="#4C8738" opacity="1.000000" stroke="none" 
	d="
M171.684906,179.872955 
	C172.803238,179.888855 173.468369,179.973587 174.468201,180.079987 
	C175.179108,182.780762 174.107620,184.642746 171.324646,184.096985 
	C165.899567,183.033081 160.155075,182.329544 155.333588,179.904572 
	C152.147858,178.302322 149.860382,177.007187 146.452621,178.511475 
	C144.842819,179.222061 142.948685,179.288498 140.965668,179.913589 
	C140.452652,180.158279 140.157349,180.136185 139.418732,180.145279 
	C135.644821,180.123489 132.314255,180.070526 128.266541,179.811127 
	C123.161705,178.107681 118.774010,176.610657 114.386307,175.113647 
	C114.515556,173.960373 114.644806,172.807098 114.950470,171.277710 
	C115.299141,170.888580 115.471397,170.875565 115.643654,170.862564 
	C115.873215,170.884995 116.102768,170.907425 117.074997,171.013260 
	C120.405930,171.626205 122.972054,172.412338 125.586525,172.637772 
	C133.877304,173.352692 142.128479,173.339783 149.990662,169.971664 
	C155.210190,177.259430 162.177338,180.823959 171.684906,179.872955 
z"/>
<path fill="#CF2B24" opacity="1.000000" stroke="none" 
	d="
M113.918228,175.098083 
	C118.774010,176.610657 123.161705,178.107681 127.824921,179.913025 
	C124.949402,182.998810 121.799324,185.777328 118.643761,188.549591 
	C118.523232,188.655502 118.256516,188.800537 118.214317,188.760880 
	C114.153191,184.944611 110.107269,181.112167 106.060371,177.280746 
	C107.025223,176.531326 107.892731,175.409576 108.979240,175.125504 
	C110.377701,174.759888 111.951736,175.065842 113.918228,175.098083 
z"/>
<path fill="#D82521" opacity="1.000000" stroke="none" 
	d="
M96.548553,193.340836 
	C94.562164,192.997971 92.970703,192.783279 90.122581,192.399063 
	C93.063728,187.817017 95.449707,183.820633 98.231010,180.121475 
	C98.577377,179.660797 101.837097,180.323517 102.343491,181.240616 
	C104.227745,184.653107 105.526176,188.389069 107.378136,192.797791 
	C103.328468,193.058304 100.135979,193.263657 96.548553,193.340836 
z"/>
<path fill="#CF2B24" opacity="1.000000" stroke="none" 
	d="
M115.687393,170.473755 
	C115.471397,170.875565 115.299141,170.888580 114.868332,170.936951 
	C111.874321,170.825241 109.138855,170.678192 106.403389,170.531143 
	C107.726601,168.085052 108.894325,165.536407 110.419731,163.223694 
	C111.761971,161.188644 113.254929,159.092010 115.152763,157.637878 
	C116.547562,156.569183 118.703835,156.494308 120.891846,156.018555 
	C119.419006,160.735352 117.575066,165.410141 115.687393,170.473755 
z"/>
<path fill="#FAECC7" opacity="1.000000" stroke="none" 
	d="
M97.929832,217.510376 
	C92.633751,218.590500 87.228447,219.296600 81.407906,219.994507 
	C83.041039,215.036774 87.948326,217.540176 91.387413,216.208786 
	C93.148216,215.527115 95.652397,216.765656 97.929832,217.510376 
z"/>
<path fill="#FAECC7" opacity="1.000000" stroke="none" 
	d="
M79.700851,220.049652 
	C79.558281,220.647308 79.093994,221.278610 78.307938,221.941559 
	C78.450485,221.343246 78.914803,220.713272 79.700851,220.049652 
z"/>
<path fill="#0B0B0B" opacity="1.000000" stroke="none" 
	d="
M335.327148,373.311981 
	C329.281036,375.853119 326.085175,373.844452 325.867554,367.741791 
	C325.790497,365.581421 325.285492,363.121582 326.117676,361.328369 
	C327.024017,359.375458 329.142059,356.929901 330.943298,356.743591 
	C332.749878,356.556702 335.751465,358.448914 336.583771,360.208374 
	C338.567230,364.401215 338.298828,368.935211 335.327148,373.311981 
z"/>
<path fill="#101010" opacity="1.000000" stroke="none" 
	d="
M258.156555,374.885376 
	C256.840332,373.258209 255.931854,371.663055 255.023346,370.067932 
	C257.833588,368.646637 260.643799,367.225342 263.752899,365.652893 
	C265.449097,372.849365 264.387878,374.349426 258.156555,374.885376 
z"/>
<path fill="#101010" opacity="1.000000" stroke="none" 
	d="
M315.776672,450.692200 
	C315.214081,451.377441 314.879120,451.981842 314.498993,452.011719 
	C312.200104,452.192505 309.866669,452.444000 307.604767,452.172272 
	C307.127930,452.115021 306.265381,449.295746 306.669708,448.919525 
	C308.339844,447.365295 310.330200,446.050903 312.404541,445.078583 
	C313.466339,444.580902 314.953796,444.991333 316.902985,444.991333 
	C316.553680,447.025391 316.268555,448.685608 315.776672,450.692200 
z"/>
<path fill="#0B0B0B" opacity="1.000000" stroke="none" 
	d="
M175.350800,373.056946 
	C169.968750,375.831726 166.667755,374.389832 165.867279,368.936646 
	C165.473022,366.250885 165.210648,363.207489 166.112534,360.780792 
	C166.789307,358.959747 169.383621,356.805603 171.189987,356.744537 
	C172.992828,356.683624 176.295746,358.891022 176.454468,360.370667 
	C176.892120,364.450623 176.029282,368.670044 175.350800,373.056946 
z"/>
<path fill="#101010" opacity="1.000000" stroke="none" 
	d="
M370.848206,367.897156 
	C370.735626,371.988434 369.824677,375.091553 365.223358,374.588623 
	C363.810608,374.434265 361.275940,373.387085 361.321503,372.980286 
	C361.518005,371.226746 362.083191,368.533813 363.251862,368.079163 
	C365.509033,367.201019 368.264435,367.603485 370.848206,367.897156 
z"/>
<path fill="#FDE0A9" opacity="1.000000" stroke="none" 
	d="
M227.256836,114.340042 
	C227.462784,114.591446 227.523575,115.140884 227.386230,115.817978 
	C227.162613,115.509789 227.137146,115.073936 227.256836,114.340042 
z"/>
<path fill="#FAECC7" opacity="1.000000" stroke="none" 
	d="
M158.232956,186.247498 
	C160.299133,186.379456 162.595200,186.794418 164.976440,187.547821 
	C162.862045,187.434326 160.662430,186.982407 158.232956,186.247498 
z"/>
<path fill="#FAECC7" opacity="1.000000" stroke="none" 
	d="
M169.013565,188.359283 
	C169.617203,188.452972 170.275208,188.865341 170.996033,189.587433 
	C170.395203,189.490753 169.731567,189.084351 169.013565,188.359283 
z"/>
<path fill="#CF2B24" opacity="1.000000" stroke="none" 
	d="
M268.933777,164.035858 
	C271.976562,163.643326 275.019318,163.250793 278.491089,162.887024 
	C289.315186,168.405228 300.261841,169.050110 311.561523,166.647476 
	C322.392944,164.344406 331.658356,159.536041 338.398041,150.098801 
	C338.768616,150.491592 338.811768,150.926300 338.794556,151.924042 
	C338.652100,152.654510 338.570068,152.821930 338.346497,153.157227 
	C338.066406,153.608139 338.060730,153.893875 338.140106,154.534653 
	C334.681580,158.973526 331.719940,163.589554 327.719940,166.980865 
	C324.453186,169.750488 319.946533,171.057617 315.989594,173.013184 
	C315.552490,173.023865 315.115417,173.034561 314.082977,173.099762 
	C312.983063,173.400696 312.478455,173.647079 311.973877,173.893463 
	C311.522064,173.930801 311.070221,173.968124 309.908020,174.050827 
	C307.472198,174.415619 305.746826,174.735016 304.021423,175.054428 
	C301.985260,175.073181 299.949127,175.091934 297.073486,175.074585 
	C289.823090,173.381485 283.412231,171.724472 276.749878,169.836914 
	C273.976898,167.749527 271.455322,165.892685 268.933777,164.035858 
z"/>
<path fill="#FAE4B1" opacity="1.000000" stroke="none" 
	d="
M268.564331,163.879059 
	C271.455322,165.892685 273.976898,167.749527 276.708313,170.184937 
	C275.806519,171.905548 274.543823,172.938980 273.623230,174.218506 
	C272.585815,175.660385 271.856506,177.323898 270.993164,178.890991 
	C269.928558,178.922562 268.863922,178.954132 267.362793,178.643188 
	C262.556030,173.812241 262.785675,179.637695 260.999756,180.943832 
	C259.339386,181.723862 257.707336,182.572800 256.012512,183.268967 
	C252.896027,184.549103 249.742584,185.739288 246.197845,186.923676 
	C249.562119,182.891571 252.730820,178.604965 252.706833,172.387253 
	C252.476349,168.668884 252.307449,165.333359 252.162766,161.583221 
	C257.522949,162.019821 262.858917,162.871033 268.564331,163.879059 
z"/>
<path fill="#FCE3B5" opacity="1.000000" stroke="none" 
	d="
M338.488007,152.989349 
	C338.570068,152.821930 338.652100,152.654510 338.870361,152.242767 
	C346.312347,152.144775 349.318604,155.910126 348.180298,163.174515 
	C347.829895,165.410721 348.051819,167.736588 348.018250,170.460693 
	C340.366882,167.609116 332.930298,168.995651 325.436096,171.693008 
	C322.590881,172.717072 319.468597,172.971359 316.231079,173.294846 
	C319.946533,171.057617 324.453186,169.750488 327.719940,166.980865 
	C331.719940,163.589554 334.681580,158.973526 338.303833,154.373627 
	C338.699524,153.563828 338.690338,153.273544 338.488007,152.989349 
z"/>
<path fill="#FCE3B5" opacity="1.000000" stroke="none" 
	d="
M271.387756,178.877136 
	C271.856506,177.323898 272.585815,175.660385 273.623230,174.218506 
	C274.543823,172.938980 275.806519,171.905548 276.959778,170.415466 
	C283.412231,171.724472 289.823090,173.381485 296.641327,175.130554 
	C295.516602,175.804031 294.023224,176.730392 292.445801,176.907303 
	C285.571320,177.678207 278.672363,178.231171 271.387756,178.877136 
z"/>
<path fill="#FCE3B5" opacity="1.000000" stroke="none" 
	d="
M261.352997,180.924866 
	C262.785675,179.637695 262.556030,173.812241 266.963318,178.633774 
	C265.235657,179.613220 263.470947,180.259567 261.352997,180.924866 
z"/>
<path fill="#FCE3B5" opacity="1.000000" stroke="none" 
	d="
M304.231079,175.292450 
	C305.746826,174.735016 307.472198,174.415619 309.588379,174.172852 
	C308.133026,174.676498 306.286865,175.103485 304.231079,175.292450 
z"/>
<path fill="#FCE3B5" opacity="1.000000" stroke="none" 
	d="
M312.112854,174.133392 
	C312.478455,173.647079 312.983063,173.400696 313.773987,173.215851 
	C313.457489,173.642700 312.854645,174.007996 312.112854,174.133392 
z"/>
<path fill="#FAECC7" opacity="1.000000" stroke="none" 
	d="
M207.222473,195.503601 
	C207.382202,195.334091 207.741058,195.352585 208.297272,195.564941 
	C208.136963,195.736389 207.779297,195.714005 207.222473,195.503601 
z"/>
<path fill="#D82521" opacity="1.000000" stroke="none" 
	d="
M310.791504,147.943359 
	C311.169373,146.059875 311.911407,144.327072 312.824585,142.286377 
	C317.222382,141.321136 321.431610,140.501190 325.680023,140.047775 
	C330.919800,139.488556 331.598450,140.378860 330.356873,145.445862 
	C330.004456,146.884277 329.735260,148.387405 329.103149,149.705093 
	C326.700775,154.713196 324.705078,155.402878 319.828705,152.909607 
	C316.886230,151.405106 314.043335,149.705795 310.791504,147.943359 
z"/>
<path fill="#CF2B24" opacity="1.000000" stroke="none" 
	d="
M289.109314,161.171402 
	C294.599060,157.548584 300.387024,154.213715 306.513733,150.784805 
	C309.610718,153.597931 312.368927,156.505066 315.734558,160.052414 
	C306.378815,163.551163 297.964264,163.677948 289.109314,161.171402 
z"/>
<path fill="#CF2B24" opacity="1.000000" stroke="none" 
	d="
M313.386475,137.995392 
	C312.856537,138.071945 312.685059,138.109543 312.064697,138.027496 
	C311.242584,137.519821 310.869415,137.131790 310.496246,136.743774 
	C308.304901,134.811981 306.113586,132.880203 303.797882,130.639893 
	C305.040283,129.237076 306.670593,126.998817 307.729126,127.242653 
	C312.850067,128.422287 317.817383,130.268982 322.839142,131.879211 
	C322.825500,132.438477 322.811859,132.997726 322.798187,133.556976 
	C319.780457,135.023468 316.762695,136.489944 313.386475,137.995392 
z"/>
<path fill="#93CC67" opacity="1.000000" stroke="none" 
	d="
M310.111237,136.914520 
	C310.869415,137.131790 311.242584,137.519821 311.812561,138.103485 
	C302.575317,149.437820 290.111511,154.199188 275.999603,156.119003 
	C265.132111,157.597427 255.015869,155.026352 244.479721,151.950836 
	C245.640244,150.561539 246.969925,148.806580 248.731369,148.026382 
	C267.722626,139.614487 287.469299,135.334595 308.348785,137.603943 
	C308.783997,137.651230 309.266022,137.267792 310.111237,136.914520 
z"/>
<path fill="#F97F7C" opacity="1.000000" stroke="none" 
	d="
M215.459976,175.049957 
	C217.176025,176.383057 218.487167,177.659271 219.798325,178.935471 
	C217.897263,180.281631 216.072830,181.763275 214.055618,182.904037 
	C213.300674,183.330994 211.868652,183.334061 211.142456,182.886322 
	C209.321030,181.763290 207.726395,180.272446 206.040817,178.929108 
	C207.713776,177.612015 209.254898,176.041183 211.111084,175.076736 
	C212.157684,174.532944 213.723282,174.987991 215.459976,175.049957 
z"/>
<path fill="#F97F7C" opacity="1.000000" stroke="none" 
	d="
M211.494766,153.349442 
	C215.225357,152.438965 218.753189,151.641617 222.312012,151.463730 
	C223.142944,151.422211 224.713440,153.447067 224.777954,154.587143 
	C224.835815,155.610092 223.508865,157.103317 222.415115,157.731659 
	C217.690155,160.446106 212.592499,158.498199 211.494766,153.349442 
z"/>
<path fill="#F97F7C" opacity="1.000000" stroke="none" 
	d="
M228.936493,169.570923 
	C231.765671,169.383499 234.280334,169.061081 236.661163,169.486862 
	C237.848129,169.699142 238.790161,171.280899 239.842987,172.243195 
	C238.458130,173.696991 237.106812,176.322296 235.681519,176.363068 
	C232.623398,176.450592 229.527115,175.204590 226.446457,174.504578 
	C227.153214,172.917984 227.859970,171.331375 228.936493,169.570923 
z"/>
<path fill="#F97F7C" opacity="1.000000" stroke="none" 
	d="
M198.978119,161.012512 
	C202.123840,161.458237 205.853622,161.515396 205.383698,165.167572 
	C205.189117,166.679901 201.395081,168.753555 199.268555,168.718521 
	C196.915909,168.679779 194.598236,166.519211 192.265335,165.282684 
	C194.368271,163.858383 196.471207,162.434082 198.978119,161.012512 
z"/>
<path fill="#6BB153" opacity="1.000000" stroke="none" 
	d="
M149.992783,169.549133 
	C142.128479,173.339783 133.877304,173.352692 125.586525,172.637772 
	C122.972054,172.412338 120.405930,171.626205 117.420464,171.032043 
	C124.815979,166.396729 132.608719,161.826050 140.990311,157.315338 
	C144.382553,159.597580 147.185944,161.819870 149.989319,164.042175 
	C149.991180,165.736984 149.993042,167.431778 149.992783,169.549133 
z"/>
<path fill="#4C8738" opacity="1.000000" stroke="none" 
	d="
M150.282089,163.885925 
	C147.185944,161.819870 144.382553,159.597580 141.319199,157.172485 
	C141.121613,155.889969 141.184021,154.810242 141.219498,154.196274 
	C144.312210,156.404190 147.452820,158.513351 150.392303,160.873016 
	C150.894150,161.275879 150.535812,162.750305 150.282089,163.885925 
z"/>
<path fill="#F45949" opacity="1.000000" stroke="none" 
	d="
M338.346497,153.157227 
	C338.690338,153.273544 338.699524,153.563828 338.351746,154.021240 
	C338.060730,153.893875 338.066406,153.608139 338.346497,153.157227 
z"/>
</svg>