<svg version="1.1" id="Layer_1" xmlns="http://www.w3.org/2000/svg" xmlns:xlink="http://www.w3.org/1999/xlink" x="0px" y="0px" width="100%" viewBox="0 0 500 500" enable-background="new 0 0 500 500" xml:space="preserve">

<path fill="#F4A04F" opacity="1.000000" stroke="none" d="
M190.973358,117.020821 
	C191.016403,95.651665 206.688797,81.804184 228.076218,85.214211 
	C305.749023,97.598442 376.949493,125.337875 438.448517,175.441223 
	C447.731415,183.004013 456.378235,191.369888 465.084930,199.611862 
	C475.360687,209.339127 478.259216,221.381546 474.531281,234.819321 
	C470.782959,248.330521 461.869904,256.871826 448.046692,259.827820 
	C417.952484,266.263184 387.833405,272.582031 357.719849,278.926514 
	C355.120483,279.474213 352.486816,279.858887 349.454895,279.812042 
	C349.855103,277.540283 350.271759,275.388367 351.550171,274.075623 
	C358.523224,266.915009 365.708374,259.960846 373.088318,253.253342 
	C384.269104,253.595352 394.698517,251.140747 404.420410,246.396851 
	C406.813416,245.229172 408.033661,241.658203 409.982666,238.822021 
	C411.755524,232.557404 413.106964,226.586227 415.018127,220.799942 
	C416.000153,217.826767 415.754059,215.779160 413.332672,213.802551 
	C402.798065,205.203018 392.478699,196.331360 381.775970,187.948166 
	C365.551117,175.239655 348.536774,163.674103 329.776215,154.957443 
	C316.723022,148.892593 303.891235,142.349716 289.504578,139.527039 
	C278.985840,137.463226 268.532898,134.747208 258.339966,131.432236 
	C248.923035,128.369629 240.127762,123.276794 230.627457,120.620399 
	C219.656876,117.552917 208.212234,116.184273 196.978027,114.053802 
	C194.196121,113.526237 192.147263,114.356422 190.973358,117.020821 
z" data-index="1"></path>
<path fill="#FAECC8" opacity="1.000000" stroke="none" d="
M163.029449,373.826263 
	C154.806747,374.333740 149.114532,368.916260 148.999985,360.228363 
	C148.872986,350.594147 149.126053,340.950836 148.795013,331.325867 
	C148.700974,328.591553 149.690582,324.668854 145.201431,323.094788 
	C145.843323,321.421051 147.298889,319.982117 147.009262,319.373047 
	C145.637421,316.488007 144.270660,313.316254 142.011108,311.196320 
	C137.194183,306.677063 130.924606,307.811218 124.792831,307.778015 
	C123.780006,306.929565 122.983643,306.332245 122.163437,305.769714 
	C113.712143,299.973572 105.312958,301.404327 98.847107,309.573364 
	C92.090103,318.110260 90.854393,328.440155 90.194534,338.592163 
	C89.281540,352.638519 89.946442,366.668823 93.513794,380.513733 
	C95.535492,388.359924 92.916336,395.455536 87.159554,401.408478 
	C85.891479,402.719757 85.719566,405.091095 85.042885,406.974274 
	C77.231583,404.013367 73.656845,398.581085 74.286057,388.472748 
	C74.767319,380.741211 76.734703,373.111969 77.447685,365.382477 
	C78.261879,356.555939 78.418663,347.668762 78.882927,338.371216 
	C76.047615,338.206757 74.467468,338.115082 72.700966,337.661194 
	C74.237564,336.196960 77.293404,335.253265 77.446396,333.964874 
	C78.024185,329.099182 72.359718,322.423218 67.491951,321.001648 
	C55.753227,317.573486 41.452980,330.178802 40.561230,341.891418 
	C40.528011,342.327698 41.304947,342.825684 41.704346,343.294891 
	C37.549549,350.632294 39.687336,358.533051 39.710785,366.229675 
	C39.721828,369.852875 40.418007,373.492889 40.218834,377.092926 
	C39.992508,381.183899 37.155079,383.513641 33.252407,383.462952 
	C29.524862,383.414581 27.224737,380.979736 26.802540,377.123688 
	C26.585890,375.144958 26.336590,373.157928 26.312094,371.172089 
	C26.199465,362.041687 26.624966,352.877869 25.988804,343.786835 
	C24.993189,329.559082 27.653675,316.401520 35.889809,304.370819 
	C36.418125,305.338593 36.386208,306.268188 36.384853,307.197845 
	C36.382748,308.641327 36.401447,310.084839 36.411331,311.528320 
	C37.856129,311.111450 39.381588,310.868042 40.728951,310.241577 
	C43.537251,308.935822 46.251366,307.427521 48.957565,306.354492 
	C48.120335,309.697906 43.023521,311.252777 46.294476,316.266235 
	C56.144657,308.119354 67.875572,308.411743 79.712715,307.640381 
	C88.274887,307.082428 96.676979,303.742523 105.099892,301.456909 
	C115.196182,298.717285 125.194138,295.608063 135.317581,292.977936 
	C144.566147,290.575073 154.111298,289.178070 163.183502,286.270111 
	C172.280533,283.354248 172.095078,282.775635 172.367889,273.054291 
	C179.702713,274.087128 185.917389,271.605774 192.451843,269.116272 
	C195.309402,269.776184 197.811142,270.275757 199.916992,270.858154 
	C195.160004,271.546967 191.844955,273.266724 191.339798,277.993683 
	C202.515106,277.993683 213.384155,277.579376 224.207199,278.107758 
	C235.512939,278.659607 245.816177,277.263947 254.952286,269.669250 
	C258.351776,266.843353 263.175049,264.386749 267.444214,264.221527 
	C277.251923,263.842072 287.165253,264.538605 296.949127,265.598053 
	C310.231415,267.036285 322.566864,265.619446 333.927612,257.831360 
	C341.174164,252.863647 349.055450,248.905228 357.990662,248.425385 
	C354.634186,250.638535 351.227661,252.306702 348.140381,254.437500 
	C338.226379,261.279999 334.160828,271.887024 331.205688,282.786346 
	C329.535553,288.946381 329.543427,295.561401 328.795319,301.971466 
	C327.283203,314.927582 327.338470,327.801056 331.270569,340.386658 
	C334.787292,351.642700 337.169983,363.209076 333.780884,374.644135 
	C331.934662,380.873322 327.301575,386.276520 323.925415,392.052277 
	C315.596344,388.856293 312.785706,381.577515 312.241943,373.873352 
	C311.710297,366.341125 312.452148,358.586456 313.648438,351.091156 
	C316.561462,332.838776 318.004364,314.714050 311.962952,296.821655 
	C311.189636,294.531494 309.206665,292.649750 307.544373,290.263916 
	C306.915161,288.512329 306.957184,286.244537 306.062744,285.780090 
	C301.760437,283.545929 297.247864,280.356537 292.729889,280.223480 
	C286.297424,280.033997 279.795105,282.215302 272.901550,283.288635 
	C260.148987,283.706390 250.344238,289.244568 243.889130,299.479370 
	C233.630096,315.745392 232.867569,334.191284 233.475098,352.717865 
	C233.664322,358.488403 234.475784,364.238586 234.628281,369.952362 
	C230.709183,368.207031 228.337753,369.340149 226.509506,372.728729 
	C221.525269,381.966797 222.051193,391.294617 226.364899,400.413727 
	C228.546265,405.025116 232.499771,405.156769 235.999313,401.499664 
	C236.885483,400.573578 237.911285,399.781128 238.902832,399.304901 
	C237.976395,406.331818 232.550751,410.099152 229.004913,415.078644 
	C226.237106,411.803314 222.561829,408.934143 220.878799,405.173340 
	C216.554611,395.510834 218.419159,385.198059 219.463699,375.128143 
	C221.549805,355.016754 221.989548,334.912933 219.790939,314.795990 
	C219.526947,312.380402 219.969345,309.040588 215.659866,308.786407 
	C216.598557,307.352966 218.841370,305.971710 218.645813,305.268494 
	C216.765640,298.507324 214.182587,292.094849 206.275146,289.632568 
	C205.709579,289.228943 205.350174,289.047607 204.906158,288.728394 
	C204.511261,288.377930 204.240067,288.426575 203.581757,288.748016 
	C201.451981,288.709503 199.748367,288.659424 197.980560,288.284302 
	C195.556320,286.297302 193.419968,283.949402 190.796921,283.094086 
	C180.381546,279.697876 169.007629,289.153687 165.103943,298.904938 
	C159.063217,313.994446 159.713791,329.904755 162.892609,345.535492 
	C164.718063,354.511597 167.184967,363.125519 160.226410,370.649261 
	C161.372421,371.948151 162.200943,372.887207 163.029449,373.826263 
M327.103851,369.476959 
	C328.796417,363.617676 328.052856,358.186096 324.312134,351.868683 
	C320.390442,358.899872 320.521149,365.170685 321.528259,371.474335 
	C321.673920,372.386078 323.403229,373.044800 324.399689,373.820587 
	C325.274170,372.648956 326.148651,371.477325 327.103851,369.476959 
z" data-index="2"></path>
<path fill="#F5822D" opacity="1.000000" stroke="none" d="
M190.821594,117.400772 
	C192.147263,114.356422 194.196121,113.526237 196.978027,114.053802 
	C208.212234,116.184273 219.656876,117.552917 230.627457,120.620399 
	C240.127762,123.276794 248.923035,128.369629 258.339966,131.432236 
	C268.532898,134.747208 278.985840,137.463226 289.504578,139.527039 
	C303.891235,142.349716 316.723022,148.892593 329.776215,154.957443 
	C348.536774,163.674103 365.551117,175.239655 381.775970,187.948166 
	C392.478699,196.331360 402.798065,205.203018 413.332672,213.802551 
	C415.754059,215.779160 416.000153,217.826767 415.018127,220.799942 
	C413.106964,226.586227 411.755524,232.557404 409.666077,238.721909 
	C398.309906,229.023499 388.121613,218.186844 376.451935,209.294144 
	C359.723328,196.546387 342.780273,183.626862 324.389618,173.605225 
	C282.817322,150.951202 236.994400,140.740082 190.882202,132.003860 
	C190.811401,127.262817 190.740616,122.521774 190.821594,117.400772 
z" data-index="3"></path>
<path fill="#F02E1F" opacity="1.000000" stroke="none" d="
M190.620316,132.197006 
	C236.994400,140.740082 282.817322,150.951202 324.389618,173.605225 
	C342.780273,183.626862 359.723328,196.546387 376.451935,209.294144 
	C388.121613,218.186844 398.309906,229.023499 409.476471,239.091949 
	C408.033661,241.658203 406.813416,245.229172 404.420410,246.396851 
	C394.698517,251.140747 384.269104,253.595352 373.266754,252.980469 
	C373.788330,251.262589 374.399261,250.135239 375.005127,249.004562 
	C375.000092,249.001236 375.007538,249.011749 375.197632,248.919922 
	C375.641113,248.628265 375.719147,248.374542 375.850494,247.752563 
	C381.379517,235.919617 378.150391,222.931580 367.462982,215.738235 
	C361.713470,211.868408 355.202728,209.129562 348.827759,205.625778 
	C341.628174,197.977509 332.808014,193.375092 323.434906,189.008957 
	C313.728027,183.722885 303.411621,183.348373 293.086182,182.993271 
	C282.576447,182.631805 273.125610,179.247665 267.106720,170.430389 
	C255.775726,153.831238 239.419205,146.546432 220.468002,144.022522 
	C208.148148,142.381760 195.692322,141.761780 183.297424,140.684464 
	C185.651093,137.919693 188.004761,135.154922 190.620316,132.197006 
z" data-index="4"></path>
<path fill="#E6443B" opacity="1.000000" stroke="none" d="
M142.765121,170.873215 
	C143.857529,161.290848 150.501144,156.250763 158.372116,152.668701 
	C163.416885,150.372864 168.915741,149.074814 174.849106,147.415176 
	C176.477295,147.426727 177.466309,147.328918 178.457718,147.281998 
	C191.710846,146.654800 204.285721,148.581085 215.538651,156.363754 
	C223.210068,161.669418 225.706528,171.388977 222.882172,179.935669 
	C217.525513,183.980637 213.062256,189.241028 207.389679,191.630310 
	C194.872818,196.902374 181.641006,198.702133 168.065231,195.008163 
	C154.142883,191.219879 143.570206,184.713425 142.765121,170.873215 
M202.585083,175.076477 
	C204.678329,174.718155 207.191254,174.932541 208.723999,173.809326 
	C209.830109,172.998779 210.543823,169.848343 209.847610,168.715958 
	C207.625366,165.101501 198.214813,165.156754 196.117798,168.760727 
	C195.455688,169.898605 196.156036,172.529419 197.145721,173.714905 
	C197.993942,174.730942 200.146042,174.658478 202.585083,175.076477 
M166.411758,174.015854 
	C169.061127,173.075287 171.918030,171.842743 170.061035,168.447479 
	C168.126007,164.909546 164.402695,164.403580 160.931488,165.692337 
	C158.856995,166.462555 157.225647,168.426437 155.395111,169.853760 
	C157.851791,171.461700 160.243210,173.188431 162.808990,174.597748 
	C163.488083,174.970764 164.704117,174.366241 166.411758,174.015854 
M180.612656,182.919052 
	C177.986298,185.470764 179.080032,187.928635 181.782349,188.713669 
	C184.783722,189.585587 188.205353,189.446732 191.366852,189.081024 
	C192.391052,188.962540 193.881256,186.731247 193.865158,185.483047 
	C193.848969,184.227325 192.298096,182.005219 191.289810,181.929184 
	C187.966476,181.678635 184.584320,182.207977 180.612656,182.919052 
M188.501160,155.947556 
	C187.791260,155.530991 187.040237,154.700897 186.378281,154.766678 
	C182.775528,155.124756 179.170242,155.594284 175.646027,156.383591 
	C175.310745,156.458679 174.915741,159.598282 175.597748,160.310776 
	C178.639755,163.488739 182.646667,163.709747 186.617371,162.496460 
	C189.575150,161.592682 191.131226,159.672592 188.501160,155.947556 
z" data-index="5"></path>
<path fill="#F9E4AE" opacity="1.000000" stroke="none" d="
M192.095993,268.955994 
	C185.917389,271.605774 179.702713,274.087128 172.313751,272.718903 
	C169.930206,270.545044 167.978195,268.753113 165.967896,266.649597 
	C165.265137,265.899323 164.620651,265.460663 163.590363,265.003662 
	C151.205978,260.220886 138.668060,259.456726 125.970200,259.589081 
	C126.313370,257.262787 126.645088,255.311203 127.361679,253.210434 
	C133.777710,251.254929 139.144669,249.919296 145.285782,254.640701 
	C149.163544,257.621979 155.527100,257.574921 160.851517,258.391754 
	C163.977615,258.871368 165.840820,257.116180 165.419464,253.317841 
	C165.484741,247.758987 165.335464,242.498749 165.464615,237.050629 
	C171.689102,230.679993 176.847488,224.124390 176.248138,214.417145 
	C175.526443,212.402069 174.738190,210.781525 173.582611,209.022675 
	C162.971283,206.027924 152.629562,204.942810 141.712738,207.093735 
	C137.886139,206.680252 134.452011,206.341202 130.831909,206.289337 
	C128.757950,208.510010 127.099815,210.768677 124.929459,212.302582 
	C121.461723,214.753418 117.677757,216.764954 113.977829,218.875153 
	C112.486481,219.725723 110.864151,220.346634 108.989929,220.936508 
	C107.769272,220.182251 106.860115,219.563522 105.950958,218.944794 
	C118.002792,205.540100 130.054626,192.135422 142.308655,178.749054 
	C144.344208,183.087646 145.186188,188.392212 148.256378,191.484421 
	C152.292450,195.549438 157.738602,198.855759 163.182907,200.759872 
	C178.970795,206.281601 194.733582,205.379852 210.002777,198.547333 
	C212.204773,200.914276 214.084061,203.529755 216.633942,204.822113 
	C226.161545,209.651031 236.512466,210.441895 246.870575,210.335083 
	C244.773315,213.962067 242.815689,217.280457 240.477264,220.518555 
	C238.412506,219.750732 236.744141,219.021759 235.042191,218.382065 
	C217.696732,211.862610 200.639740,212.496674 184.072952,220.866425 
	C174.670517,225.616669 169.489227,233.101486 170.519119,244.465179 
	C170.441757,253.061951 174.660446,258.911011 181.235138,263.177399 
	C184.662247,265.401306 188.463654,267.048370 192.095993,268.955994 
z" data-index="6"></path>
<path fill="#F8DB9E" opacity="1.000000" stroke="none" d="
M375.010193,249.007874 
	C374.399261,250.135239 373.788330,251.262589 372.998993,252.662827 
	C365.708374,259.960846 358.523224,266.915009 351.550171,274.075623 
	C350.271759,275.388367 349.855103,277.540283 349.042419,279.678253 
	C349.044159,280.051666 349.043518,280.022766 348.826294,279.999756 
	C348.277832,280.067657 348.095337,280.283905 348.061615,280.625519 
	C340.367462,298.071777 339.743988,316.439575 341.586823,334.952911 
	C342.604279,345.174438 345.291748,355.232788 346.246582,365.456238 
	C346.773499,371.098114 346.096161,377.167480 344.512329,382.623413 
	C341.553864,392.814392 334.610077,395.881531 324.188110,392.334045 
	C327.301575,386.276520 331.934662,380.873322 333.780884,374.644135 
	C337.169983,363.209076 334.787292,351.642700 331.270569,340.386658 
	C327.338470,327.801056 327.283203,314.927582 328.795319,301.971466 
	C329.543427,295.561401 329.535553,288.946381 331.205688,282.786346 
	C334.160828,271.887024 338.226379,261.279999 348.140381,254.437500 
	C351.227661,252.306702 354.634186,250.638535 358.353119,248.411880 
	C359.540649,248.047638 360.269684,248.030106 361.177307,248.214523 
	C361.941620,247.985992 362.527313,247.555511 363.348938,247.116577 
	C363.584869,247.108093 364.054321,247.057785 364.282043,247.071899 
	C364.509796,247.086029 364.964325,247.139999 365.236664,247.398453 
	C368.676056,248.107239 371.843140,248.557556 375.010193,249.007874 
z" data-index="7"></path>
<path fill="#FDE1AB" opacity="1.000000" stroke="none" d="
M223.226959,179.848602 
	C225.706528,171.388977 223.210068,161.669418 215.538651,156.363754 
	C204.285721,148.581085 191.710846,146.654800 178.457718,147.281998 
	C177.466309,147.328918 176.477295,147.426727 175.192932,147.288696 
	C177.512344,145.022827 180.125992,142.969162 183.018524,140.799988 
	C195.692322,141.761780 208.148148,142.381760 220.468002,144.022522 
	C239.419205,146.546432 255.775726,153.831238 267.106720,170.430389 
	C273.125610,179.247665 282.576447,182.631805 293.086182,182.993271 
	C303.411621,183.348373 313.728027,183.722885 323.194580,189.283752 
	C321.666351,189.526230 320.021484,189.514557 318.412842,189.267181 
	C306.565094,187.445312 295.007629,188.413361 283.444519,192.865540 
	C280.750641,193.602081 278.393646,194.212372 276.029114,194.416962 
	C276.428589,187.941971 273.130341,184.061005 268.299835,181.184830 
	C255.900116,173.801819 242.263596,174.386261 228.666718,175.492798 
	C227.111084,175.619400 225.766891,178.344238 224.049759,179.892761 
	C223.592239,179.896988 223.409592,179.872787 223.226959,179.848602 
z" data-index="8"></path>
<path fill="#F6D99D" opacity="1.000000" stroke="none" d="
M235.002411,369.998077 
	C234.475784,364.238586 233.664322,358.488403 233.475098,352.717865 
	C232.867569,334.191284 233.630096,315.745392 243.889130,299.479370 
	C250.344238,289.244568 260.148987,283.706390 272.753265,283.577240 
	C271.573029,285.049225 269.883423,285.929596 268.710968,287.264221 
	C265.056915,291.423737 261.598663,295.755249 258.064514,300.020050 
	C251.856445,307.651764 249.767624,316.930023 248.072510,326.217468 
	C244.319534,346.780029 245.492706,367.246063 249.243195,387.762787 
	C250.399170,394.086548 250.277527,401.131287 248.732529,407.346649 
	C246.437790,416.578186 238.256302,419.514099 229.215439,415.366882 
	C232.550751,410.099152 237.976395,406.331818 238.934814,398.844421 
	C238.908722,388.489960 240.376251,378.763489 235.002411,369.998077 
z" data-index="9" style="opacity: 1;"></path>
<path fill="#F7DA9D" opacity="1.000000" stroke="none" d="
M85.364410,407.192444 
	C85.719566,405.091095 85.891479,402.719757 87.159554,401.408478 
	C92.916336,395.455536 95.535492,388.359924 93.513794,380.513733 
	C89.946442,366.668823 89.281540,352.638519 90.194534,338.592163 
	C90.854393,328.440155 92.090103,318.110260 98.847107,309.573364 
	C105.312958,301.404327 113.712143,299.973572 122.163437,305.769714 
	C122.983643,306.332245 123.780006,306.929565 124.534988,308.015900 
	C121.684143,309.881927 118.410767,310.713135 116.183395,312.710693 
	C111.096931,317.272369 105.942352,322.097290 106.852303,330.016907 
	C105.238922,336.319183 102.590553,342.565216 102.244255,348.936340 
	C101.661980,359.649200 102.678444,370.440674 102.750114,381.200897 
	C102.785141,386.460724 102.938187,391.898621 101.736824,396.946289 
	C99.901596,404.657104 92.912331,408.727234 85.364410,407.192444 
z" data-index="10"></path>
<path fill="#F8D99D" opacity="1.000000" stroke="none" d="
M163.386383,373.852570 
	C162.200943,372.887207 161.372421,371.948151 160.226410,370.649261 
	C167.184967,363.125519 164.718063,354.511597 162.892609,345.535492 
	C159.713791,329.904755 159.063217,313.994446 165.103943,298.904938 
	C169.007629,289.153687 180.381546,279.697876 190.796921,283.094086 
	C193.419968,283.949402 195.556320,286.297302 197.613358,288.420380 
	C193.854782,290.581512 190.399185,292.281555 186.970932,293.994812 
	C186.998260,294.008057 187.012634,293.949066 186.761292,294.029663 
	C186.336624,294.403656 186.163269,294.697083 185.645203,295.019958 
	C178.084702,300.590149 174.505493,307.979279 174.141968,317.002869 
	C171.122116,329.608978 171.632431,342.282166 173.591156,354.946106 
	C175.155258,365.058441 172.184097,370.959930 163.386383,373.852570 
z" data-index="11"></path>
<path fill="#F45949" opacity="1.000000" stroke="none" d="
M105.601578,218.969437 
	C106.860115,219.563522 107.769272,220.182251 108.878632,221.264954 
	C107.717995,223.470917 106.357162,225.212891 104.638702,226.913528 
	C101.588501,225.446350 99.604935,226.433990 97.926865,228.672394 
	C96.255882,230.901352 94.432701,233.020615 92.837868,235.300995 
	C91.222649,237.610550 89.805305,240.058487 88.301285,242.445816 
	C91.392136,242.925034 94.482994,243.404251 97.681839,244.294006 
	C97.791115,246.116272 97.792404,247.528000 97.410713,248.923233 
	C94.755463,248.662155 92.403168,247.941849 90.233467,248.306885 
	C88.065231,248.671661 85.892517,250.249313 88.448776,252.768860 
	C91.843399,256.114685 95.356201,259.376831 99.116791,262.289490 
	C100.051193,263.013184 102.517639,262.821289 103.619270,262.075012 
	C107.519730,259.432800 111.134087,256.368225 115.309196,253.362366 
	C118.844269,253.301392 121.927017,253.341827 124.929077,253.699158 
	C119.843002,263.015472 111.383736,267.566010 102.291451,271.029755 
	C87.246422,276.761261 72.085732,275.834564 56.982475,271.022034 
	C61.609493,265.237946 66.103287,259.340851 70.892097,253.693970 
	C80.025299,242.924210 89.383102,232.344879 98.512505,221.571976 
	C100.417320,219.324265 102.276466,217.961990 105.601578,218.969437 
M78.648842,253.949020 
	C75.957863,258.257172 73.266884,262.565308 69.803177,268.110535 
	C77.219513,268.110535 82.815620,268.110535 89.410385,268.110535 
	C87.354408,263.133911 85.995575,259.070679 83.961487,255.379547 
	C83.328072,254.230148 80.867340,254.087708 78.648842,253.949020 
z" data-index="12"></path>
<path fill="#FCE7B6" opacity="1.000000" stroke="none" d="
M49.004189,306.002441 
	C46.251366,307.427521 43.537251,308.935822 40.728951,310.241577 
	C39.381588,310.868042 37.856129,311.111450 36.411331,311.528320 
	C36.401447,310.084839 36.382748,308.641327 36.384853,307.197845 
	C36.386208,306.268188 36.418125,305.338593 36.177273,304.182831 
	C36.124950,303.414520 36.331699,302.872375 36.997269,302.003235 
	C37.608761,301.358032 37.761429,301.039795 37.914108,300.721527 
	C43.635044,293.567108 49.355976,286.412689 55.682304,279.093811 
	C71.828125,283.304749 87.352577,283.876190 102.896782,279.118225 
	C104.080826,281.208374 104.859581,283.444580 106.432022,284.516449 
	C110.484787,287.279083 108.911232,288.823395 105.608795,290.144867 
	C102.117752,291.541809 98.539574,292.720978 94.756432,293.745972 
	C92.330902,294.300140 90.148407,295.103577 87.500099,295.924042 
	C81.021034,295.950714 75.007774,295.960388 68.725815,295.715088 
	C63.845524,294.973846 59.720112,295.713593 57.001015,300.001221 
	C57.000000,300.000000 57.001728,300.002350 56.652863,300.007812 
	C55.533882,300.671997 54.763763,301.330780 53.818382,302.220673 
	C53.107494,302.643158 52.571873,302.834534 51.717064,303.066772 
	C50.933285,303.740662 50.468689,304.373688 49.884315,305.215759 
	C49.562645,305.685272 49.309196,305.877808 49.004189,306.002441 
z" data-index="13"></path>
<path fill="#F3A14D" opacity="1.000000" stroke="none" d="
M174.522614,316.920746 
	C174.505493,307.979279 178.084702,300.590149 185.859924,294.889099 
	C186.617126,294.468872 186.814880,294.208954 187.012634,293.949066 
	C187.012634,293.949066 186.998260,294.008057 187.402191,294.068817 
	C194.031189,292.704651 200.256256,291.279755 206.481323,289.854858 
	C214.182587,292.094849 216.765640,298.507324 218.645813,305.268494 
	C218.841370,305.971710 216.598557,307.352966 215.274506,308.711548 
	C201.675690,311.615173 188.289474,314.226898 174.522614,316.920746 
z" data-index="14"></path>
<path fill="#CB2925" opacity="1.000000" stroke="none" d="
M222.882172,179.935669 
	C223.409592,179.872787 223.592239,179.896988 223.915222,180.264771 
	C222.359726,188.863693 216.906525,194.112381 209.987946,198.188477 
	C194.733582,205.379852 178.970795,206.281601 163.182907,200.759872 
	C157.738602,198.855759 152.292450,195.549438 148.256378,191.484421 
	C145.186188,188.392212 144.344208,183.087646 142.390411,178.409729 
	C142.286530,175.878098 142.303101,173.704102 142.542389,171.201660 
	C143.570206,184.713425 154.142883,191.219879 168.065231,195.008163 
	C181.641006,198.702133 194.872818,196.902374 207.389679,191.630310 
	C213.062256,189.241028 217.525513,183.980637 222.882172,179.935669 
z" data-index="15"></path>
<path fill="#F3A251" opacity="1.000000" stroke="none" d="
M107.285759,330.114624 
	C105.942352,322.097290 111.096931,317.272369 116.183395,312.710693 
	C118.410767,310.713135 121.684143,309.881927 124.740372,308.283173 
	C130.924606,307.811218 137.194183,306.677063 142.011108,311.196320 
	C144.270660,313.316254 145.637421,316.488007 147.009262,319.373047 
	C147.298889,319.982117 145.843323,321.421051 145.011658,322.750854 
	C143.738235,323.345032 142.645035,323.665894 140.831741,323.920898 
	C137.070435,324.544861 134.029236,325.234741 130.988022,325.924622 
	C130.988022,325.924622 130.590118,326.214111 130.101166,325.922852 
	C126.053810,326.664032 121.385231,324.098938 118.992577,328.908875 
	C115.234795,329.343353 111.477005,329.777832 107.285759,330.114624 
z" data-index="16"></path>
<path fill="#F2A250" opacity="1.000000" stroke="none" d="
M42.092216,343.305450 
	C41.304947,342.825684 40.528011,342.327698 40.561230,341.891418 
	C41.452980,330.178802 55.753227,317.573486 67.491951,321.001648 
	C72.359718,322.423218 78.024185,329.099182 77.446396,333.964874 
	C77.293404,335.253265 74.237564,336.196960 72.279404,337.567596 
	C62.189484,339.662811 52.334785,341.489410 42.092216,343.305450 
z" data-index="17"></path>
<path fill="#F0A454" opacity="1.000000" stroke="none" d="
M258.461609,299.994141 
	C261.598663,295.755249 265.056915,291.423737 268.710968,287.264221 
	C269.883423,285.929596 271.573029,285.049225 273.174347,283.672424 
	C279.795105,282.215302 286.297424,280.033997 292.729889,280.223480 
	C297.247864,280.356537 301.760437,283.545929 306.062744,285.780090 
	C306.957184,286.244537 306.915161,288.512329 307.152130,290.235657 
	C290.952606,293.670898 274.905640,296.819550 258.461609,299.994141 
z" data-index="18"></path>
<path fill="#CF2C24" opacity="1.000000" stroke="none" d="
M102.853043,278.733856 
	C87.352577,283.876190 71.828125,283.304749 55.947128,278.834106 
	C55.903442,276.348541 56.200329,273.958252 56.739845,271.294983 
	C72.085732,275.834564 87.246422,276.761261 102.291451,271.029755 
	C111.383736,267.566010 119.843002,263.015472 125.251656,253.610077 
	C126.095551,253.255920 126.536179,253.307770 126.976807,253.359619 
	C126.645088,255.311203 126.313370,257.262787 125.716843,259.810730 
	C120.480125,269.674103 112.030273,274.652466 102.853043,278.733856 
z" data-index="19"></path>
<path fill="#F0A454" opacity="1.000000" stroke="none" d="
M119.381737,328.958832 
	C121.385231,324.098938 126.053810,326.664032 129.856812,325.893982 
	C126.657928,327.107208 123.214417,328.058014 119.381737,328.958832 
z" data-index="20"></path>
<path fill="#F0A454" opacity="1.000000" stroke="none" d="
M131.405441,325.953979 
	C134.029236,325.234741 137.070435,324.544861 140.473816,323.905396 
	C137.831619,324.631653 134.827240,325.307495 131.405441,325.953979 
z" data-index="21"></path>
<path fill="#FAECC8" opacity="1.000000" stroke="none" d="
M37.655067,300.843262 
	C37.761429,301.039795 37.608761,301.358032 37.249062,301.844696 
	C37.160038,301.663727 37.278038,301.314392 37.655067,300.843262 
z" data-index="22"></path>
<path fill="#F4A04F" opacity="1.000000" stroke="none" d="
M348.264343,280.593353 
	C348.095337,280.283905 348.277832,280.067657 348.832672,280.013611 
	C348.978790,280.358276 348.782410,280.528503 348.264343,280.593353 
z" data-index="23"></path>
<path fill="#FDF8EB" opacity="1.000000" stroke="none" d="
M102.896782,279.118225 
	C112.030273,274.652466 120.480125,269.674103 125.705399,260.185425 
	C138.668060,259.456726 151.205978,260.220886 163.651062,265.314789 
	C164.740433,266.083221 165.383301,266.522186 166.026184,266.961151 
	C167.978195,268.753113 169.930206,270.545044 171.936340,272.672394 
	C172.095078,282.775635 172.280533,283.354248 163.183502,286.270111 
	C154.111298,289.178070 144.566147,290.575073 135.317581,292.977936 
	C125.194138,295.608063 115.196182,298.717285 105.099892,301.456909 
	C96.676979,303.742523 88.274887,307.082428 79.712715,307.640381 
	C67.875572,308.411743 56.144657,308.119354 46.294476,316.266235 
	C43.023521,311.252777 48.120335,309.697906 48.957565,306.354492 
	C49.309196,305.877808 49.562645,305.685272 50.197689,305.164673 
	C51.099312,304.278290 51.567776,303.652100 52.036247,303.025909 
	C52.571873,302.834534 53.107494,302.643158 54.137627,302.191467 
	C55.421997,301.288208 56.211861,300.645264 57.001728,300.002350 
	C57.001728,300.002350 57.000000,300.000000 57.383995,299.991211 
	C61.510170,298.644989 65.252342,297.307526 68.994522,295.970062 
	C75.007774,295.960388 81.021034,295.950714 87.884048,295.942902 
	C90.822357,295.294922 92.910904,294.645081 94.999466,293.995300 
	C98.539574,292.720978 102.117752,291.541809 105.608795,290.144867 
	C108.911232,288.823395 110.484787,287.279083 106.432022,284.516449 
	C104.859581,283.444580 104.080826,281.208374 102.896782,279.118225 
z" data-index="24"></path>
<path fill="#FCF7E7" opacity="1.000000" stroke="none" d="
M364.054321,247.057785 
	C364.054321,247.057785 363.584869,247.108093 363.039551,247.100082 
	C361.995728,247.398895 361.497223,247.705734 360.998688,248.012573 
	C360.269684,248.030106 359.540649,248.047638 358.449158,248.078674 
	C349.055450,248.905228 341.174164,252.863647 333.927612,257.831360 
	C322.566864,265.619446 310.231415,267.036285 296.949127,265.598053 
	C287.165253,264.538605 277.251923,263.842072 267.444214,264.221527 
	C263.175049,264.386749 258.351776,266.843353 254.952286,269.669250 
	C245.816177,277.263947 235.512939,278.659607 224.207199,278.107758 
	C213.384155,277.579376 202.515106,277.993683 191.339798,277.993683 
	C191.844955,273.266724 195.160004,271.546967 200.344543,270.848083 
	C217.254013,272.638245 232.446198,270.561096 246.058090,260.954529 
	C247.788651,260.972382 249.582138,261.114532 250.840927,260.362152 
	C260.017181,254.877319 269.962311,251.997498 280.535828,250.954498 
	C286.035278,250.412003 291.513306,249.652298 297.468445,249.000534 
	C301.987305,249.006287 306.046448,249.142136 310.085876,248.919830 
	C311.441711,248.845200 312.747345,247.858429 314.462097,247.211365 
	C315.896057,247.094925 316.943909,247.055710 318.186035,247.253113 
	C319.272217,247.082352 320.164124,246.674988 321.365723,246.161713 
	C322.109344,246.025314 322.543243,245.994843 323.217285,246.236572 
	C324.725800,246.450180 326.139587,246.739456 327.239960,246.279251 
	C338.171844,241.707199 349.295532,239.473434 361.186768,243.233536 
	C362.252258,243.978226 363.130829,244.484665 364.005188,245.335388 
	C364.018768,246.139053 364.036560,246.598419 364.054321,247.057785 
z" data-index="25"></path>
<path fill="#CD2C27" opacity="1.000000" stroke="none" d="
M245.873474,260.664673 
	C232.446198,270.561096 217.254013,272.638245 200.740417,270.765289 
	C197.811142,270.275757 195.309402,269.776184 192.451843,269.116272 
	C188.463654,267.048370 184.662247,265.401306 181.235138,263.177399 
	C174.660446,258.911011 170.441757,253.061951 170.799438,244.569427 
	C175.583069,254.124588 184.272186,258.745483 193.757904,261.561005 
	C204.711182,264.812195 216.093750,265.004272 227.170349,261.892242 
	C238.271545,258.773254 248.348007,253.913559 252.865509,242.441010 
	C254.105057,250.202057 250.139923,255.493301 245.873474,260.664673 
z" data-index="26"></path>
<path fill="#FDF8EB" opacity="1.000000" stroke="none" d="
M234.628281,369.952362 
	C240.376251,378.763489 238.908722,388.489960 238.904907,398.466797 
	C237.911285,399.781128 236.885483,400.573578 235.999313,401.499664 
	C232.499771,405.156769 228.546265,405.025116 226.364899,400.413727 
	C222.051193,391.294617 221.525269,381.966797 226.509506,372.728729 
	C228.337753,369.340149 230.709183,368.207031 234.628281,369.952362 
z" data-index="27"></path>
<path fill="#FCF8EA" opacity="1.000000" stroke="none" d="
M327.063477,369.891327 
	C326.148651,371.477325 325.274170,372.648956 324.399689,373.820587 
	C323.403229,373.044800 321.673920,372.386078 321.528259,371.474335 
	C320.521149,365.170685 320.390442,358.899872 324.312134,351.868683 
	C328.052856,358.186096 328.796417,363.617676 327.063477,369.891327 
z" data-index="28"></path>
<path fill="#CB431B" opacity="1.000000" stroke="none" d="
M206.275146,289.632568 
	C200.256256,291.279755 194.031189,292.704651 187.374863,294.055603 
	C190.399185,292.281555 193.854782,290.581512 197.677582,288.745422 
	C199.748367,288.659424 201.451981,288.709503 203.819565,288.839539 
	C204.652618,288.901764 204.821686,288.884003 204.990768,288.866241 
	C205.350174,289.047607 205.709579,289.228943 206.275146,289.632568 
z" data-index="29"></path>
<path fill="#F8D99D" opacity="1.000000" stroke="none" d="
M204.906158,288.728394 
	C204.821686,288.884003 204.652618,288.901764 204.245758,288.827972 
	C204.240067,288.426575 204.511261,288.377930 204.906158,288.728394 
z" data-index="30"></path>
<path fill="#F55A49" opacity="1.000000" stroke="none" d="
M283.781403,192.739273 
	C295.007629,188.413361 306.565094,187.445312 318.412842,189.267181 
	C320.021484,189.514557 321.666351,189.526230 323.534790,189.372253 
	C332.808014,193.375092 341.628174,197.977509 348.576111,205.878998 
	C349.073608,210.262589 349.615051,214.138290 350.067383,218.256897 
	C349.897888,218.652420 349.817505,218.805069 349.423218,219.061783 
	C335.694824,242.769760 298.855133,243.833054 281.371277,234.274094 
	C285.743927,233.347656 289.721405,232.576447 293.993164,232.098633 
	C303.872192,235.376617 313.271637,234.566452 324.254486,231.325043 
	C320.033264,227.108200 316.817688,223.895996 313.706635,220.379242 
	C314.864960,219.052628 315.918732,218.030533 317.197998,217.243286 
	C318.250397,217.712143 319.077332,217.946152 320.104858,218.453583 
	C323.531830,220.438583 326.793854,222.086868 329.975159,223.878494 
	C333.571075,225.903656 336.261932,224.404251 337.892517,221.371017 
	C339.355896,218.648773 340.324188,215.535583 340.873718,212.480270 
	C341.481018,209.103470 339.886322,207.529968 336.189209,208.381500 
	C331.501343,209.461258 326.745453,210.245773 321.683167,211.096100 
	C321.121704,211.006058 320.895935,210.977554 320.663635,210.567276 
	C320.684143,209.168289 320.711212,208.151062 321.074615,206.969864 
	C324.850952,205.018539 328.290924,203.231216 331.730896,201.443893 
	C331.777496,200.801788 331.824097,200.159683 331.870697,199.517578 
	C326.984650,197.956802 322.048737,196.533966 317.228790,194.790497 
	C313.547485,193.458893 311.135437,194.271622 309.510345,198.003784 
	C302.202026,196.654984 295.265900,195.388702 288.344360,194.046936 
	C286.797058,193.746948 285.301025,193.182144 283.781403,192.739273 
z" data-index="31"></path>
<path fill="#FCE2A8" opacity="1.000000" stroke="none" d="
M350.156494,218.014008 
	C349.615051,214.138290 349.073608,210.262589 348.783813,206.133636 
	C355.202728,209.129562 361.713470,211.868408 367.462982,215.738235 
	C378.150391,222.931580 381.379517,235.919617 375.704407,247.877838 
	C375.156982,248.518600 375.049622,248.750031 375.007538,249.011749 
	C375.007538,249.011749 375.000092,249.001236 375.005127,249.004547 
	C371.843140,248.557556 368.676056,248.107239 365.442688,247.193298 
	C364.920715,246.150162 364.465057,245.570618 364.009399,244.991089 
	C363.130829,244.484665 362.252258,243.978226 361.186859,242.767242 
	C360.999786,238.272247 361.176147,234.469727 360.917969,230.696945 
	C360.804535,229.039688 360.227753,227.032761 359.126007,225.899506 
	C356.359528,223.053864 353.173981,220.615631 350.156494,218.014008 
z" data-index="32"></path>
<path fill="#F8DB9E" opacity="1.000000" stroke="none" d="
M375.197632,248.919922 
	C375.049622,248.750031 375.156982,248.518600 375.475769,248.192200 
	C375.719147,248.374542 375.641113,248.628265 375.197632,248.919922 
z" data-index="33"></path>
<path fill="#F9817E" opacity="1.000000" stroke="none" d="
M202.153290,175.071930 
	C200.146042,174.658478 197.993942,174.730942 197.145721,173.714905 
	C196.156036,172.529419 195.455688,169.898605 196.117798,168.760727 
	C198.214813,165.156754 207.625366,165.101501 209.847610,168.715958 
	C210.543823,169.848343 209.830109,172.998779 208.723999,173.809326 
	C207.191254,174.932541 204.678329,174.718155 202.153290,175.071930 
z" data-index="34"></path>
<path fill="#F9817E" opacity="1.000000" stroke="none" d="
M166.042679,174.113220 
	C164.704117,174.366241 163.488083,174.970764 162.808990,174.597748 
	C160.243210,173.188431 157.851791,171.461700 155.395111,169.853760 
	C157.225647,168.426437 158.856995,166.462555 160.931488,165.692337 
	C164.402695,164.403580 168.126007,164.909546 170.061035,168.447479 
	C171.918030,171.842743 169.061127,173.075287 166.042679,174.113220 
z" data-index="35"></path>
<path fill="#F9817E" opacity="1.000000" stroke="none" d="
M180.918701,182.678436 
	C184.584320,182.207977 187.966476,181.678635 191.289810,181.929184 
	C192.298096,182.005219 193.848969,184.227325 193.865158,185.483047 
	C193.881256,186.731247 192.391052,188.962540 191.366852,189.081024 
	C188.205353,189.446732 184.783722,189.585587 181.782349,188.713669 
	C179.080032,187.928635 177.986298,185.470764 180.918701,182.678436 
z" data-index="36"></path>
<path fill="#F9817E" opacity="1.000000" stroke="none" d="
M188.779419,156.224701 
	C191.131226,159.672592 189.575150,161.592682 186.617371,162.496460 
	C182.646667,163.709747 178.639755,163.488739 175.597748,160.310776 
	C174.915741,159.598282 175.310745,156.458679 175.646027,156.383591 
	C179.170242,155.594284 182.775528,155.124756 186.378281,154.766678 
	C187.040237,154.700897 187.791260,155.530991 188.779419,156.224701 
z" data-index="37"></path>
<path fill="#E8463C" opacity="1.000000" stroke="none" d="
M252.779541,242.007736 
	C248.348007,253.913559 238.271545,258.773254 227.170349,261.892242 
	C216.093750,265.004272 204.711182,264.812195 193.757904,261.561005 
	C184.272186,258.745483 175.583069,254.124588 170.893524,244.198380 
	C169.489227,233.101486 174.670517,225.616669 184.072952,220.866425 
	C200.639740,212.496674 217.696732,211.862610 235.042191,218.382065 
	C236.744141,219.021759 238.412506,219.750732 240.527069,220.666687 
	C240.957687,220.895111 241.143021,221.151566 241.070450,221.558746 
	C240.067657,226.747681 242.261444,229.298477 246.804581,230.360153 
	C248.695084,230.801926 250.499512,231.612091 252.374802,232.638672 
	C252.530853,236.017639 252.655197,239.012680 252.779541,242.007736 
M233.818359,249.852142 
	C235.453812,248.250366 237.089279,246.648575 238.724716,245.046783 
	C236.449661,243.697266 234.311234,241.737198 231.857086,241.188080 
	C229.831299,240.734833 227.194122,241.502853 225.254776,242.533188 
	C222.436920,244.030319 222.113159,246.822723 225.002258,248.353622 
	C227.308044,249.575409 230.311096,249.481323 233.818359,249.852142 
M202.888885,255.945633 
	C206.251114,255.905701 209.802719,256.535858 212.926743,255.653000 
	C216.672134,254.594528 216.948441,250.584091 213.331848,249.225464 
	C210.367783,248.111984 206.504242,248.168045 203.389725,249.006653 
	C199.919144,249.941101 198.624680,252.643127 202.888885,255.945633 
M189.134201,240.869049 
	C189.956070,240.929749 190.845947,241.224579 191.587646,241.009201 
	C194.295975,240.222717 197.026245,239.417770 199.562241,238.224457 
	C199.985977,238.025085 199.832153,234.934311 199.354599,234.755341 
	C196.396774,233.646759 193.277222,232.959305 190.191086,232.216263 
	C189.786133,232.118744 189.132278,232.371094 188.821335,232.686066 
	C187.510193,234.014236 185.616226,235.282547 185.273712,236.862793 
	C185.060013,237.848770 187.235855,239.352661 189.134201,240.869049 
M212.927826,229.774490 
	C213.912231,229.780228 215.157745,230.174088 215.832764,229.719940 
	C217.978043,228.276688 221.521149,226.587357 221.595871,224.866043 
	C221.759674,221.092300 217.936630,221.052277 214.947006,220.882263 
	C214.453766,220.854202 213.878052,220.711075 213.475937,220.903824 
	C211.122833,222.031693 208.810028,223.243668 206.483612,224.427246 
	C208.383469,226.133652 210.283325,227.840057 212.927826,229.774490 
z" data-index="38"></path>
<path fill="#FCF8EA" opacity="1.000000" stroke="none" d="
M210.002777,198.547333 
	C216.906525,194.112381 222.359726,188.863693 224.190094,180.236359 
	C225.766891,178.344238 227.111084,175.619400 228.666718,175.492798 
	C242.263596,174.386261 255.900116,173.801819 268.299835,181.184830 
	C273.130341,184.061005 276.428589,187.941971 275.651917,194.539139 
	C264.446442,197.385223 254.921143,202.180344 247.010223,210.026474 
	C236.512466,210.441895 226.161545,209.651031 216.633942,204.822113 
	C214.084061,203.529755 212.204773,200.914276 210.002777,198.547333 
z" data-index="39"></path>
<path fill="#64A84B" opacity="1.000000" stroke="none" d="
M104.996323,226.954849 
	C106.357162,225.212891 107.717995,223.470917 109.190125,221.400497 
	C110.864151,220.346634 112.486481,219.725723 113.977829,218.875153 
	C117.677757,216.764954 121.461723,214.753418 124.929459,212.302582 
	C127.099815,210.768677 128.757950,208.510010 131.139404,206.438538 
	C135.125198,213.158829 138.484009,220.089935 142.167953,226.843658 
	C143.922058,230.059418 146.125153,233.073807 148.422989,235.940414 
	C153.235352,241.943985 158.245270,247.789200 162.719391,253.786011 
	C152.868118,253.655869 143.623856,253.104507 138.313110,243.451996 
	C138.132690,243.124069 137.432327,243.082214 136.982361,242.530685 
	C137.647964,240.061279 138.305511,237.968201 138.964630,235.517029 
	C135.177170,231.361115 131.388123,227.563309 127.020782,223.185883 
	C127.020782,225.009476 127.020782,225.966599 126.801483,227.203308 
	C119.121170,231.952133 111.630875,236.374008 104.234207,240.947296 
	C103.251595,241.554840 102.744720,242.931824 101.605423,243.959839 
	C100.369522,243.945587 99.545715,243.923965 98.705994,243.488235 
	C100.792160,237.701050 102.894241,232.327942 104.996323,226.954849 
z" data-index="40"></path>
<path fill="#6EAF52" opacity="1.000000" stroke="none" d="
M246.870575,210.335083 
	C254.921143,202.180344 264.446442,197.385223 275.659485,194.944824 
	C278.393646,194.212372 280.750641,193.602081 283.444519,192.865540 
	C285.301025,193.182144 286.797058,193.746948 288.344360,194.046936 
	C295.265900,195.388702 302.202026,196.654984 309.684631,198.296112 
	C313.159576,201.034958 316.082794,203.426208 318.580750,205.859131 
	C315.201477,205.600510 312.212097,204.850998 309.299805,205.080292 
	C298.603058,205.922485 287.841675,206.540390 277.274628,208.277252 
	C264.822174,210.324051 252.889343,214.385971 241.770233,221.030563 
	C241.559280,221.060440 241.143021,221.151566 241.143021,221.151566 
	C241.143021,221.151566 240.957687,220.895111 240.907867,220.746979 
	C242.815689,217.280457 244.773315,213.962067 246.870575,210.335083 
z" data-index="41"></path>
<path fill="#8DC55F" opacity="1.000000" stroke="none" d="
M163.174057,253.699463 
	C158.245270,247.789200 153.235352,241.943985 148.422989,235.940414 
	C146.125153,233.073807 143.922058,230.059418 142.167953,226.843658 
	C138.484009,220.089935 135.125198,213.158829 131.325409,206.151352 
	C134.452011,206.341202 137.886139,206.680252 141.858215,207.376312 
	C145.252029,210.832184 148.107895,213.931030 150.971741,217.487762 
	C151.127335,229.872498 151.127335,229.872498 161.809784,232.390335 
	C162.996292,234.236008 164.091248,235.737259 165.186188,237.238525 
	C165.335464,242.498749 165.484741,247.758987 165.085022,253.395538 
	C164.082016,253.747742 163.628036,253.723602 163.174057,253.699463 
z" data-index="42"></path>
<path fill="#478838" opacity="1.000000" stroke="none" d="
M162.719391,253.786011 
	C163.628036,253.723602 164.082016,253.747742 164.870453,253.694183 
	C165.840820,257.116180 163.977615,258.871368 160.851517,258.391754 
	C155.527100,257.574921 149.163544,257.621979 145.285782,254.640701 
	C139.144669,249.919296 133.777710,251.254929 127.361679,253.210434 
	C126.536179,253.307770 126.095551,253.255920 125.332352,253.293152 
	C121.927017,253.341827 118.844269,253.301392 114.893692,253.225250 
	C108.615143,251.772949 103.204414,250.356339 97.793701,248.939743 
	C97.792404,247.528000 97.791115,246.116272 97.969910,244.298508 
	C98.340622,243.895752 98.531258,243.899033 98.721901,243.902328 
	C99.545715,243.923965 100.369522,243.945587 102.012299,244.001007 
	C114.320740,246.942688 125.690384,246.222244 136.974319,242.907013 
	C137.432327,243.082214 138.132690,243.124069 138.313110,243.451996 
	C143.623856,253.104507 152.868118,253.655869 162.719391,253.786011 
z" data-index="43"></path>
<path fill="#6CB253" opacity="1.000000" stroke="none" d="
M161.718246,232.045914 
	C151.127335,229.872498 151.127335,229.872498 151.345779,217.431427 
	C158.196091,214.941483 164.692688,213.004501 171.151917,210.950058 
	C172.171158,210.625900 173.021500,209.770676 173.949921,209.160995 
	C174.738190,210.781525 175.526443,212.402069 175.968048,214.644104 
	C171.659576,221.416290 168.315155,228.078506 161.718246,232.045914 
z" data-index="44"></path>
<path fill="#61A248" opacity="1.000000" stroke="none" d="
M173.582611,209.022675 
	C173.021500,209.770676 172.171158,210.625900 171.151917,210.950058 
	C164.692688,213.004501 158.196091,214.941483 151.337784,216.973541 
	C148.107895,213.931030 145.252029,210.832184 142.250702,207.450745 
	C152.629562,204.942810 162.971283,206.027924 173.582611,209.022675 
z" data-index="45"></path>
<path fill="#518B3C" opacity="1.000000" stroke="none" d="
M161.809784,232.390335 
	C168.315155,228.078506 171.659576,221.416290 175.901489,215.038651 
	C176.847488,224.124390 171.689102,230.679993 165.464615,237.050629 
	C164.091248,235.737259 162.996292,234.236008 161.809784,232.390335 
z" data-index="46"></path>
<path fill="#FAECC8" opacity="1.000000" stroke="none" d="
M165.967896,266.649597 
	C165.383301,266.522186 164.740433,266.083221 164.036850,265.333130 
	C164.620651,265.460663 165.265137,265.899323 165.967896,266.649597 
z" data-index="47"></path>
<path fill="#FAECC8" opacity="1.000000" stroke="none" d="
M364.005188,245.335388 
	C364.465057,245.570618 364.920715,246.150162 365.170349,246.934845 
	C364.964325,247.139999 364.509796,247.086029 364.282043,247.071899 
	C364.036560,246.598419 364.018768,246.139053 364.005188,245.335388 
z" data-index="48"></path>
<path fill="#FAECC8" opacity="1.000000" stroke="none" d="
M361.177307,248.214523 
	C361.497223,247.705734 361.995728,247.398895 362.803650,247.108551 
	C362.527313,247.555511 361.941620,247.985992 361.177307,248.214523 
z" data-index="49"></path>
<path fill="#CB431B" opacity="1.000000" stroke="none" d="
M186.761292,294.029663 
	C186.814880,294.208954 186.617126,294.468872 186.204651,294.859619 
	C186.163269,294.697083 186.336624,294.403656 186.761292,294.029663 
z" data-index="50"></path>
<path fill="#CF2C24" opacity="1.000000" stroke="none" d="
M97.410706,248.923233 
	C103.204414,250.356339 108.615143,251.772949 114.441376,253.326645 
	C111.134087,256.368225 107.519730,259.432800 103.619270,262.075012 
	C102.517639,262.821289 100.051193,263.013184 99.116791,262.289490 
	C95.356201,259.376831 91.843399,256.114685 88.448776,252.768860 
	C85.892517,250.249313 88.065231,248.671661 90.233467,248.306885 
	C92.403168,247.941849 94.755463,248.662155 97.410706,248.923233 
z" data-index="51"></path>
<path fill="#DA2320" opacity="1.000000" stroke="none" d="
M78.945992,253.716660 
	C80.867340,254.087708 83.328072,254.230148 83.961487,255.379547 
	C85.995575,259.070679 87.354408,263.133911 89.410385,268.110535 
	C82.815620,268.110535 77.219513,268.110535 69.803177,268.110535 
	C73.266884,262.565308 75.957863,258.257172 78.945992,253.716660 
z" data-index="52"></path>
<path fill="#CF2C24" opacity="1.000000" stroke="none" d="
M98.705994,243.488235 
	C98.531258,243.899033 98.340622,243.895752 97.861923,243.887970 
	C94.482994,243.404251 91.392136,242.925034 88.301285,242.445816 
	C89.805305,240.058487 91.222649,237.610550 92.837868,235.300995 
	C94.432701,233.020615 96.255882,230.901352 97.926865,228.672394 
	C99.604935,226.433990 101.588501,225.446350 104.638695,226.913528 
	C102.894241,232.327942 100.792160,237.701050 98.705994,243.488235 
z" data-index="53"></path>
<path fill="#FAECC8" opacity="1.000000" stroke="none" d="
M68.725815,295.715088 
	C65.252342,297.307526 61.510170,298.644989 57.385010,299.992432 
	C59.720112,295.713593 63.845524,294.973846 68.725815,295.715088 
z" data-index="54"></path>
<path fill="#FAECC8" opacity="1.000000" stroke="none" d="
M94.756424,293.745972 
	C92.910904,294.645081 90.822357,295.294922 88.349854,295.925873 
	C90.148407,295.103577 92.330902,294.300140 94.756424,293.745972 
z" data-index="55"></path>
<path fill="#FAECC8" opacity="1.000000" stroke="none" d="
M56.652863,300.007812 
	C56.211861,300.645264 55.421997,301.288208 54.312889,301.960327 
	C54.763763,301.330780 55.533882,300.671997 56.652863,300.007812 
z" data-index="56"></path>
<path fill="#FAECC8" opacity="1.000000" stroke="none" d="
M51.717064,303.066772 
	C51.567776,303.652100 51.099312,304.278290 50.317474,304.955597 
	C50.468689,304.373688 50.933285,303.740662 51.717064,303.066772 
z" data-index="57"></path>
<path fill="#FAE8B5" opacity="1.000000" stroke="none" d="
M252.865509,242.441010 
	C252.655197,239.012680 252.530853,236.017639 252.737137,232.648590 
	C259.066040,233.485352 265.064362,234.696091 271.099243,236.101471 
	C271.135834,236.296127 271.148590,236.692047 271.149506,237.081146 
	C272.549652,238.268051 273.948853,239.065826 275.544312,239.888367 
	C275.740509,239.913101 276.032166,240.180298 276.176056,240.366699 
	C276.559662,240.773697 276.841217,240.903793 277.496582,240.987366 
	C279.218292,241.732635 280.608002,242.433914 282.080688,243.477844 
	C283.227142,244.515396 284.203247,245.497406 285.370148,245.852493 
	C289.209869,247.020935 293.118713,247.962189 297.001007,248.990692 
	C291.513306,249.652298 286.035278,250.412003 280.535828,250.954498 
	C269.962311,251.997498 260.017181,254.877319 250.840927,260.362152 
	C249.582138,261.114532 247.788651,260.972382 246.058090,260.954529 
	C250.139923,255.493301 254.105057,250.202057 252.865509,242.441010 
z" data-index="58"></path>
<path fill="#CF2923" opacity="1.000000" stroke="none" d="
M271.148590,236.692047 
	C271.148590,236.692047 271.135834,236.296127 271.459747,235.956192 
	C274.847778,235.220612 277.911926,234.824966 280.976044,234.429321 
	C298.855133,243.833054 335.694824,242.769760 349.460052,219.356781 
	C349.784485,219.743179 349.758179,219.938675 349.583557,220.285797 
	C349.301147,220.737442 349.356323,220.997604 349.578064,221.617340 
	C348.637665,228.905823 344.962372,234.230743 339.271057,237.767059 
	C334.127716,240.962952 328.430267,243.267029 322.977142,245.964386 
	C322.543243,245.994843 322.109344,246.025314 321.038879,246.100891 
	C319.598755,246.436157 318.795258,246.726318 317.991730,247.016495 
	C316.943909,247.055710 315.896057,247.094925 313.993591,247.134048 
	C302.478058,247.985641 292.085968,246.743530 281.997742,243.135178 
	C280.608002,242.433914 279.218292,241.732635 277.379974,240.769196 
	C276.688446,240.241821 276.388702,240.132904 276.032166,240.180298 
	C276.032166,240.180298 275.740509,239.913101 275.346466,239.618286 
	C273.684479,238.446335 272.416534,237.569183 271.148590,236.692047 
z" data-index="59"></path>
<path fill="#FCE0B1" opacity="1.000000" stroke="none" d="
M323.217285,246.236572 
	C328.430267,243.267029 334.127716,240.962952 339.271057,237.767059 
	C344.962372,234.230743 348.637665,228.905823 349.690308,221.456635 
	C349.925140,220.626419 349.894043,220.372314 349.731873,220.134171 
	C349.758179,219.938675 349.784485,219.743179 349.773987,219.252686 
	C349.817505,218.805069 349.897888,218.652420 350.067383,218.256897 
	C353.173981,220.615631 356.359528,223.053864 359.126007,225.899506 
	C360.227753,227.032761 360.804535,229.039688 360.917969,230.696945 
	C361.176147,234.469727 360.999786,238.272247 360.999939,242.528976 
	C349.295532,239.473434 338.171844,241.707199 327.239960,246.279251 
	C326.139587,246.739456 324.725800,246.450180 323.217285,246.236572 
z" data-index="60"></path>
<path fill="#FCE0B1" opacity="1.000000" stroke="none" d="
M282.080688,243.477844 
	C292.085968,246.743530 302.478058,247.985641 313.607452,247.211273 
	C312.747345,247.858429 311.441711,248.845200 310.085876,248.919830 
	C306.046448,249.142136 301.987305,249.006287 297.468445,249.000549 
	C293.118713,247.962189 289.209869,247.020935 285.370148,245.852493 
	C284.203247,245.497406 283.227142,244.515396 282.080688,243.477844 
z" data-index="61"></path>
<path fill="#FCE0B1" opacity="1.000000" stroke="none" d="
M318.186035,247.253113 
	C318.795258,246.726318 319.598755,246.436157 320.729156,246.206802 
	C320.164124,246.674988 319.272217,247.082352 318.186035,247.253113 
z" data-index="62"></path>
<path fill="#518B3C" opacity="1.000000" stroke="none" d="
M281.371277,234.274094 
	C277.911926,234.824966 274.847778,235.220612 271.423157,235.761536 
	C265.064362,234.696091 259.066040,233.485352 252.705414,232.264679 
	C250.499512,231.612091 248.695084,230.801926 246.804581,230.360153 
	C242.261444,229.298477 240.067657,226.747681 241.070450,221.558746 
	C241.143021,221.151566 241.559280,221.060440 242.092133,221.200043 
	C267.578247,232.280212 301.825317,227.893768 319.656433,207.008362 
	C320.158173,207.090286 320.445862,207.129425 320.738281,207.133850 
	C320.711212,208.151062 320.684143,209.168289 320.409973,210.754608 
	C319.099396,213.218628 318.035980,215.113541 316.972534,217.008438 
	C315.918732,218.030533 314.864960,219.052628 313.383667,220.473541 
	C306.537079,224.516647 300.117950,228.160934 293.698853,231.805237 
	C289.721405,232.576447 285.743927,233.347656 281.371277,234.274094 
z" data-index="63"></path>
<path fill="#DA2320" opacity="1.000000" stroke="none" d="
M322.018890,211.157608 
	C326.745453,210.245773 331.501343,209.461258 336.189209,208.381500 
	C339.886322,207.529968 341.481018,209.103470 340.873718,212.480270 
	C340.324188,215.535583 339.355896,218.648773 337.892517,221.371017 
	C336.261932,224.404251 333.571075,225.903656 329.975159,223.878494 
	C326.793854,222.086868 323.531830,220.438583 320.141327,218.064072 
	C320.657776,215.319977 321.338318,213.238785 322.018890,211.157608 
z" data-index="64"></path>
<path fill="#CF2923" opacity="1.000000" stroke="none" d="
M293.993164,232.098633 
	C300.117950,228.160934 306.537079,224.516647 313.279144,220.778076 
	C316.817688,223.895996 320.033264,227.108200 324.254486,231.325043 
	C313.271637,234.566452 303.872192,235.376617 293.993164,232.098633 
z" data-index="65"></path>
<path fill="#CF2C24" opacity="1.000000" stroke="none" d="
M321.074646,206.969864 
	C320.445862,207.129425 320.158173,207.090286 319.585876,206.698212 
	C319.199707,206.192459 319.102844,206.004959 319.006012,205.817459 
	C316.082794,203.426208 313.159576,201.034958 310.062073,198.351364 
	C311.135437,194.271622 313.547485,193.458893 317.228790,194.790497 
	C322.048737,196.533966 326.984650,197.956802 331.870697,199.517578 
	C331.824097,200.159683 331.777496,200.801788 331.730896,201.443893 
	C328.290924,203.231216 324.850952,205.018539 321.074646,206.969864 
z" data-index="66"></path>
<path fill="#CF2C24" opacity="1.000000" stroke="none" d="
M321.683167,211.096100 
	C321.338318,213.238785 320.657776,215.319977 319.940735,217.790665 
	C319.077332,217.946152 318.250397,217.712143 317.197998,217.243286 
	C318.035980,215.113541 319.099396,213.218628 320.416504,211.136383 
	C320.895935,210.977554 321.121704,211.006058 321.683167,211.096100 
z" data-index="67"></path>
<path fill="#F9817E" opacity="1.000000" stroke="none" d="
M233.411499,249.911743 
	C230.311096,249.481323 227.308044,249.575409 225.002258,248.353622 
	C222.113159,246.822723 222.436920,244.030319 225.254776,242.533188 
	C227.194122,241.502853 229.831299,240.734833 231.857086,241.188080 
	C234.311234,241.737198 236.449661,243.697266 238.724731,245.046783 
	C237.089279,246.648575 235.453812,248.250366 233.411499,249.911743 
z" data-index="68"></path>
<path fill="#F9817E" opacity="1.000000" stroke="none" d="
M202.552628,255.746857 
	C198.624680,252.643127 199.919144,249.941101 203.389725,249.006653 
	C206.504242,248.168045 210.367783,248.111984 213.331848,249.225464 
	C216.948441,250.584091 216.672134,254.594528 212.926743,255.653000 
	C209.802719,256.535858 206.251114,255.905701 202.552628,255.746857 
z" data-index="69"></path>
<path fill="#F9817E" opacity="1.000000" stroke="none" d="
M188.736786,240.746582 
	C187.235855,239.352661 185.060013,237.848770 185.273712,236.862793 
	C185.616226,235.282547 187.510193,234.014236 188.821335,232.686066 
	C189.132278,232.371094 189.786133,232.118744 190.191086,232.216263 
	C193.277222,232.959305 196.396774,233.646759 199.354599,234.755341 
	C199.832153,234.934311 199.985977,238.025085 199.562241,238.224457 
	C197.026245,239.417770 194.295975,240.222717 191.587646,241.009201 
	C190.845947,241.224579 189.956070,240.929749 188.736786,240.746582 
z" data-index="70"></path>
<path fill="#F9817E" opacity="1.000000" stroke="none" d="
M212.555511,229.660477 
	C210.283325,227.840057 208.383469,226.133652 206.483612,224.427246 
	C208.810028,223.243668 211.122833,222.031693 213.475937,220.903824 
	C213.878052,220.711075 214.453766,220.854202 214.947006,220.882263 
	C217.936630,221.052277 221.759674,221.092300 221.595871,224.866043 
	C221.521149,226.587357 217.978043,228.276688 215.832764,229.719940 
	C215.157745,230.174088 213.912231,229.780228 212.555511,229.660477 
z" data-index="71"></path>
<path fill="#6AB152" opacity="1.000000" stroke="none" d="
M136.982361,242.530685 
	C125.690384,246.222244 114.320740,246.942688 102.424385,243.993622 
	C102.744720,242.931824 103.251595,241.554840 104.234207,240.947296 
	C111.630875,236.374008 119.121170,231.952133 127.085983,227.386566 
	C130.818863,230.896362 132.978455,235.919418 138.963058,235.875122 
	C138.305511,237.968201 137.647964,240.061279 136.982361,242.530685 
z" data-index="72"></path>
<path fill="#478838" opacity="1.000000" stroke="none" d="
M138.964630,235.517029 
	C132.978455,235.919418 130.818863,230.896362 127.305275,227.106949 
	C127.020782,225.966599 127.020782,225.009476 127.020782,223.185883 
	C131.388123,227.563309 135.177170,231.361115 138.964630,235.517029 
z" data-index="73"></path>
<path fill="#94CD67" opacity="1.000000" stroke="none" d="
M318.580750,205.859131 
	C319.102844,206.004959 319.199707,206.192459 319.367096,206.690125 
	C301.825317,227.893768 267.578247,232.280212 242.303101,221.170166 
	C252.889343,214.385971 264.822174,210.324051 277.274628,208.277252 
	C287.841675,206.540390 298.603058,205.922485 309.299805,205.080292 
	C312.212097,204.850998 315.201477,205.600510 318.580750,205.859131 
z" data-index="74"></path>
<path fill="#FCE0B1" opacity="1.000000" stroke="none" d="
M271.149506,237.081146 
	C272.416534,237.569183 273.684479,238.446335 275.150269,239.593536 
	C273.948853,239.065826 272.549652,238.268051 271.149506,237.081146 
z" data-index="75"></path>
<path fill="#FCE0B1" opacity="1.000000" stroke="none" d="
M276.176056,240.366699 
	C276.388702,240.132904 276.688446,240.241821 277.048004,240.725204 
	C276.841217,240.903793 276.559662,240.773697 276.176056,240.366699 
z" data-index="76"></path>
<path fill="#F55A49" opacity="1.000000" stroke="none" d="
M349.583557,220.285797 
	C349.894043,220.372314 349.925140,220.626419 349.712952,221.057205 
	C349.356323,220.997604 349.301147,220.737442 349.583557,220.285797 
z" data-index="77"></path>
</svg>